G75*
%MOIN*%
%OFA0B0*%
%FSLAX25Y25*%
%IPPOS*%
%LPD*%
%AMOC8*
5,1,8,0,0,1.08239X$1,22.5*
%
%ADD10C,0.13635*%
%ADD11C,0.18500*%
%ADD12C,0.06800*%
%ADD13R,0.14304X0.07296*%
%ADD14R,0.05800X0.12296*%
%ADD15R,0.05131X0.04737*%
%ADD16R,0.04737X0.05131*%
%ADD17R,0.15800X0.17493*%
%ADD18R,0.05524X0.03950*%
%ADD19R,0.06400X0.06400*%
%ADD20C,0.06400*%
%ADD21R,0.11824X0.11824*%
%ADD22C,0.11824*%
%ADD23R,0.03000X0.05800*%
%ADD24C,0.06800*%
%ADD25R,0.08450X0.08450*%
%ADD26C,0.07850*%
%ADD27R,0.13398X0.07887*%
%ADD28R,0.03000X0.08600*%
%ADD29R,0.03162X0.03950*%
%ADD30R,0.04540X0.09265*%
%ADD31R,0.13202X0.09265*%
%ADD32R,0.02200X0.06200*%
%ADD33C,0.07800*%
%ADD34C,0.08200*%
%ADD35OC8,0.08200*%
%ADD36C,0.13398*%
%ADD37C,0.07493*%
%ADD38C,0.03778*%
D10*
X0253307Y0400931D03*
X0666713Y0353707D03*
X0666713Y0016502D03*
D11*
X0499940Y0188914D03*
D12*
X0225598Y0064258D02*
X0219598Y0064258D01*
X0219598Y0054258D02*
X0225598Y0054258D01*
X0225598Y0044258D02*
X0219598Y0044258D01*
X0219598Y0034258D02*
X0225598Y0034258D01*
X0225598Y0024258D02*
X0219598Y0024258D01*
X0219598Y0014258D02*
X0225598Y0014258D01*
D13*
X0392480Y0021364D03*
X0434843Y0021364D03*
X0469567Y0021364D03*
X0511929Y0021364D03*
X0546260Y0021364D03*
X0588622Y0021364D03*
X0305709Y0347171D03*
X0275157Y0347171D03*
D14*
X0290433Y0325636D03*
X0290433Y0307407D03*
X0407756Y0061128D03*
X0419567Y0061128D03*
X0419567Y0042900D03*
X0407756Y0042900D03*
X0484843Y0042900D03*
X0496654Y0042900D03*
X0496654Y0061128D03*
X0484843Y0061128D03*
X0561535Y0061128D03*
X0573346Y0061128D03*
X0573346Y0042900D03*
X0561535Y0042900D03*
D15*
X0154921Y0277860D03*
X0148228Y0277860D03*
X0087559Y0304986D03*
X0080866Y0304986D03*
X0394094Y0356364D03*
X0400787Y0356364D03*
X0406890Y0356364D03*
X0413583Y0356364D03*
X0520669Y0313648D03*
X0527362Y0313648D03*
X0534252Y0313648D03*
X0540945Y0313648D03*
X0567323Y0313372D03*
X0574016Y0313372D03*
X0584508Y0313372D03*
X0591201Y0313372D03*
X0591201Y0320065D03*
X0584508Y0320065D03*
X0584508Y0326758D03*
X0584508Y0333451D03*
X0591201Y0333451D03*
X0591201Y0326758D03*
X0591201Y0340144D03*
X0584508Y0340144D03*
D16*
X0154252Y0309317D03*
X0154252Y0302624D03*
X0154921Y0269907D03*
X0148228Y0269907D03*
X0075039Y0256010D03*
X0075039Y0249317D03*
D17*
X0098937Y0241876D03*
X0098937Y0216758D03*
X0159488Y0322742D03*
X0159488Y0347860D03*
D18*
X0166850Y0309199D03*
X0166850Y0302112D03*
X0083701Y0255734D03*
X0083701Y0248648D03*
D19*
X0137087Y0248175D03*
D20*
X0137087Y0258175D03*
X0137087Y0268175D03*
X0137087Y0278175D03*
X0137087Y0288175D03*
X0137087Y0298175D03*
X0137087Y0308175D03*
X0137087Y0318175D03*
X0137087Y0328175D03*
X0137087Y0338175D03*
X0137087Y0348175D03*
X0137087Y0358175D03*
D21*
X0099488Y0305301D03*
D22*
X0069488Y0305301D03*
X0039488Y0305301D03*
X0039488Y0195065D03*
X0054488Y0195065D03*
X0069488Y0195065D03*
X0084488Y0195065D03*
X0099488Y0195065D03*
D23*
X0626024Y0148354D03*
X0633424Y0148354D03*
X0633424Y0138154D03*
X0629724Y0138154D03*
X0626024Y0138154D03*
D24*
X0115400Y0333399D03*
X0115400Y0354199D03*
D25*
X0137928Y0392073D03*
X0158428Y0392073D03*
X0198028Y0392073D03*
X0218528Y0392073D03*
D26*
X0091339Y0385716D02*
X0091339Y0378666D01*
X0051339Y0398666D02*
X0051339Y0405716D01*
D27*
X0331850Y0322821D03*
X0331850Y0300774D03*
X0390827Y0323766D03*
X0390827Y0345813D03*
X0439646Y0346443D03*
X0439646Y0324396D03*
X0493583Y0323805D03*
X0493583Y0345852D03*
X0543189Y0345577D03*
X0543189Y0323530D03*
D28*
X0375177Y0320434D03*
X0370177Y0320434D03*
X0365177Y0320434D03*
X0360177Y0320434D03*
X0360177Y0301034D03*
X0365177Y0301034D03*
X0370177Y0301034D03*
X0375177Y0301034D03*
D29*
X0377244Y0330419D03*
X0377244Y0340262D03*
X0558346Y0336797D03*
X0558346Y0326955D03*
D30*
X0527283Y0324238D03*
X0518228Y0324238D03*
X0509173Y0324238D03*
X0476890Y0325498D03*
X0467835Y0325498D03*
X0458780Y0325498D03*
X0424449Y0346600D03*
X0415394Y0346600D03*
X0406339Y0346600D03*
D31*
X0415394Y0323766D03*
X0467835Y0348333D03*
X0518228Y0347073D03*
D32*
X0566594Y0339356D03*
X0569094Y0339356D03*
X0571694Y0339356D03*
X0574194Y0339356D03*
X0574194Y0321956D03*
X0571694Y0321956D03*
X0569094Y0321956D03*
X0566594Y0321956D03*
D33*
X0336220Y0230931D03*
X0336220Y0220931D03*
X0336220Y0210931D03*
X0336220Y0200931D03*
D34*
X0340457Y0280104D03*
X0330457Y0280104D03*
X0320457Y0280104D03*
X0310457Y0280104D03*
X0300457Y0280104D03*
X0350457Y0280104D03*
X0360457Y0280104D03*
X0370457Y0280104D03*
X0386457Y0280104D03*
X0396457Y0280104D03*
X0406457Y0280104D03*
X0416457Y0280104D03*
X0426457Y0280104D03*
X0436457Y0280104D03*
X0446457Y0280104D03*
X0456457Y0280104D03*
X0476457Y0280104D03*
X0486457Y0280104D03*
X0496457Y0280104D03*
X0506457Y0280104D03*
X0516457Y0280104D03*
X0526457Y0280104D03*
X0536457Y0280104D03*
X0546457Y0280104D03*
X0576457Y0280104D03*
X0586457Y0280104D03*
X0586457Y0110104D03*
X0576457Y0110104D03*
X0566457Y0090104D03*
X0556457Y0090104D03*
X0546457Y0090104D03*
X0536457Y0090104D03*
X0526457Y0090104D03*
X0516457Y0090104D03*
X0506457Y0090104D03*
X0496457Y0090104D03*
X0476457Y0090104D03*
X0466457Y0090104D03*
X0456457Y0090104D03*
X0446457Y0090104D03*
X0436457Y0090104D03*
X0426457Y0090104D03*
X0416457Y0090104D03*
X0406457Y0090104D03*
X0386457Y0090104D03*
X0376457Y0090104D03*
X0366457Y0090104D03*
X0356457Y0090104D03*
X0346457Y0090104D03*
X0336457Y0090104D03*
D35*
X0576457Y0120104D03*
X0586457Y0120104D03*
X0586457Y0130104D03*
X0576457Y0130104D03*
X0576457Y0140104D03*
X0586457Y0140104D03*
X0586457Y0150104D03*
X0576457Y0150104D03*
X0576457Y0160104D03*
X0586457Y0160104D03*
X0586457Y0170104D03*
X0576457Y0170104D03*
X0576457Y0180104D03*
X0586457Y0180104D03*
X0586457Y0190104D03*
X0576457Y0190104D03*
X0576457Y0200104D03*
X0586457Y0200104D03*
X0586457Y0210104D03*
X0576457Y0210104D03*
X0576457Y0220104D03*
X0586457Y0220104D03*
X0586457Y0230104D03*
X0576457Y0230104D03*
X0576457Y0240104D03*
X0586457Y0240104D03*
X0586457Y0250104D03*
X0576457Y0250104D03*
X0576457Y0260104D03*
X0586457Y0260104D03*
X0586457Y0270104D03*
X0576457Y0270104D03*
D36*
X0561457Y0280104D03*
X0466457Y0220104D03*
X0466457Y0110104D03*
X0586457Y0090104D03*
X0266457Y0280104D03*
X0261457Y0090104D03*
D37*
X0266969Y0024435D03*
X0280748Y0024435D03*
X0294528Y0024435D03*
X0319646Y0024435D03*
X0333425Y0024435D03*
X0347205Y0024435D03*
X0360984Y0024435D03*
X0253189Y0024435D03*
D38*
X0189055Y0094159D03*
X0231969Y0124081D03*
X0255197Y0113057D03*
X0260315Y0113057D03*
X0265433Y0113057D03*
X0290236Y0113451D03*
X0325669Y0129593D03*
X0325669Y0137073D03*
X0325669Y0144947D03*
X0325669Y0153608D03*
X0326063Y0161089D03*
X0326063Y0169356D03*
X0326063Y0177624D03*
X0326063Y0185104D03*
X0301654Y0223687D03*
X0292992Y0223687D03*
X0285906Y0224081D03*
X0278031Y0224081D03*
X0270157Y0224474D03*
X0261496Y0224081D03*
X0253228Y0224081D03*
X0246142Y0224868D03*
X0231575Y0224081D03*
X0189843Y0243766D03*
X0187874Y0254002D03*
X0163071Y0269750D03*
X0196142Y0293372D03*
X0201654Y0293372D03*
X0207165Y0293372D03*
X0213858Y0293372D03*
X0219370Y0293372D03*
X0224882Y0293372D03*
X0221732Y0308726D03*
X0171339Y0318963D03*
X0171339Y0324474D03*
X0171339Y0329986D03*
X0146929Y0320144D03*
X0146929Y0316207D03*
X0146929Y0311482D03*
X0081969Y0365026D03*
X0232756Y0264238D03*
X0163071Y0213057D03*
X0144173Y0236679D03*
X0230787Y0189041D03*
X0189843Y0164238D03*
X0231969Y0143766D03*
X0380787Y0135498D03*
X0409134Y0132348D03*
X0409134Y0139829D03*
X0426063Y0147492D03*
X0426063Y0152427D03*
X0426063Y0157545D03*
X0431181Y0135498D03*
X0409134Y0116207D03*
X0441586Y0109345D03*
X0483150Y0098096D03*
X0497323Y0111089D03*
X0487874Y0142978D03*
X0496535Y0148490D03*
X0463465Y0170144D03*
X0470157Y0175262D03*
X0425669Y0182348D03*
X0430000Y0216207D03*
X0421732Y0219697D03*
X0439843Y0223293D03*
X0448898Y0223293D03*
X0448898Y0241010D03*
X0439843Y0241404D03*
X0421732Y0237860D03*
X0421339Y0244159D03*
X0385906Y0231955D03*
X0383543Y0221719D03*
X0398213Y0218860D03*
X0487480Y0208495D03*
X0494173Y0208333D03*
X0492598Y0225420D03*
X0497323Y0225420D03*
X0506378Y0229199D03*
X0537874Y0185498D03*
X0533543Y0179199D03*
X0560709Y0179593D03*
X0561890Y0186285D03*
X0593780Y0189829D03*
X0598504Y0189829D03*
X0604409Y0187860D03*
X0604409Y0181167D03*
X0598504Y0180774D03*
X0593780Y0180380D03*
X0611890Y0170537D03*
X0628425Y0156758D03*
X0642992Y0144159D03*
X0629606Y0132348D03*
X0649291Y0122112D03*
X0670551Y0110695D03*
X0668583Y0071719D03*
X0636299Y0072900D03*
X0630000Y0072112D03*
X0616614Y0068022D03*
X0612448Y0071096D03*
X0600866Y0078411D03*
X0574882Y0071325D03*
X0567402Y0078018D03*
X0600866Y0060301D03*
X0605984Y0059907D03*
X0611890Y0059907D03*
X0616614Y0059907D03*
X0630000Y0057152D03*
X0636299Y0058915D03*
X0651654Y0046915D03*
X0585118Y0042585D03*
X0573307Y0031167D03*
X0546142Y0034711D03*
X0514252Y0034711D03*
X0509134Y0040616D03*
X0430787Y0051246D03*
X0419370Y0032742D03*
X0371339Y0015419D03*
X0566614Y0107939D03*
X0569370Y0098096D03*
X0609528Y0099671D03*
X0649685Y0194159D03*
X0670945Y0194553D03*
X0620945Y0218963D03*
X0616220Y0215813D03*
X0621339Y0233530D03*
X0606772Y0254789D03*
X0596957Y0275262D03*
X0598942Y0281955D03*
X0607559Y0279986D03*
X0615039Y0296128D03*
X0624094Y0298096D03*
X0650472Y0286679D03*
X0648898Y0264632D03*
X0670157Y0264632D03*
X0588268Y0298096D03*
X0561890Y0313451D03*
X0562677Y0322112D03*
X0554803Y0323293D03*
X0550472Y0335892D03*
X0571732Y0347309D03*
X0580787Y0346915D03*
X0602835Y0346915D03*
X0625669Y0353608D03*
X0627638Y0349278D03*
X0605197Y0333923D03*
X0597323Y0332348D03*
X0513858Y0313844D03*
X0476850Y0317781D03*
X0398898Y0337467D03*
X0371732Y0340222D03*
X0367795Y0340222D03*
X0367795Y0330380D03*
X0371732Y0330380D03*
X0354409Y0318569D03*
X0354409Y0313844D03*
X0354409Y0309514D03*
X0354803Y0295734D03*
X0350472Y0296128D03*
X0316220Y0315813D03*
X0387480Y0356364D03*
M02*
