%
M48
M72
T01C0.01378
T02C0.03500
T03C0.03937
T04C0.04000
T05C0.04331
T06C0.04700
T07C0.05100
T08C0.07087
T09C0.12598
T10C0.12835
T11C0.17700
%
T01
X189055Y94159
X231969Y124081
X255197Y113057
X260315Y113057
X265433Y113057
X290236Y113451
X325669Y129593
X325669Y137073
X325669Y144947
X325669Y153608
X326063Y161089
X326063Y169356
X326063Y177624
X326063Y185104
X301654Y223687
X292992Y223687
X285906Y224081
X278031Y224081
X270157Y224474
X261496Y224081
X253228Y224081
X246142Y224868
X231575Y224081
X189843Y243766
X187874Y254002
X163071Y269750
X196142Y293372
X201654Y293372
X207165Y293372
X213858Y293372
X219370Y293372
X224882Y293372
X221732Y308726
X171339Y318963
X171339Y324474
X171339Y329986
X146929Y320144
X146929Y316207
X146929Y311482
X81969Y365026
X232756Y264238
X163071Y213057
X144173Y236679
X230787Y189041
X189843Y164238
X231969Y143766
X380787Y135498
X409134Y132348
X409134Y139829
X426063Y147492
X426063Y152427
X426063Y157545
X431181Y135498
X409134Y116207
X441586Y109345
X483150Y98096
X497323Y111089
X487874Y142978
X496535Y148490
X463465Y170144
X470157Y175262
X425669Y182348
X430000Y216207
X421732Y219697
X439843Y223293
X448898Y223293
X448898Y241010
X439843Y241404
X421732Y237860
X421339Y244159
X385906Y231955
X383543Y221719
X398213Y218860
X487480Y208495
X494173Y208333
X492598Y225420
X497323Y225420
X506378Y229199
X537874Y185498
X533543Y179199
X560709Y179593
X561890Y186285
X593780Y189829
X598504Y189829
X604409Y187860
X604409Y181167
X598504Y180774
X593780Y180380
X611890Y170537
X628425Y156758
X642992Y144159
X629606Y132348
X649291Y122112
X670551Y110695
X668583Y71719
X636299Y72900
X630000Y72112
X616614Y68022
X612448Y71096
X600866Y78411
X574882Y71325
X567402Y78018
X600866Y60301
X605984Y59907
X611890Y59907
X616614Y59907
X630000Y57152
X636299Y58915
X651654Y46915
X585118Y42585
X573307Y31167
X546142Y34711
X514252Y34711
X509134Y40616
X430787Y51246
X419370Y32742
X371339Y15419
X566614Y107939
X569370Y98096
X609528Y99671
X649685Y194159
X670945Y194553
X620945Y218963
X616220Y215813
X621339Y233530
X606772Y254789
X596957Y275262
X598942Y281955
X607559Y279986
X615039Y296128
X624094Y298096
X650472Y286679
X648898Y264632
X670157Y264632
X588268Y298096
X561890Y313451
X562677Y322112
X554803Y323293
X550472Y335892
X571732Y347309
X580787Y346915
X602835Y346915
X625669Y353608
X627638Y349278
X605197Y333923
X597323Y332348
X513858Y313844
X476850Y317781
X398898Y337467
X371732Y340222
X367795Y340222
X367795Y330380
X371732Y330380
X354409Y318569
X354409Y313844
X354409Y309514
X354803Y295734
X350472Y296128
X316220Y315813
X387480Y356364
T02
X137087Y358175
X137087Y348175
X137087Y338175
X137087Y328175
X137087Y318175
X137087Y308175
X137087Y298175
X137087Y288175
X137087Y278175
X137087Y268175
X137087Y258175
X137087Y248175
T03
X336220Y230931
X336220Y220931
X336220Y210931
X336220Y200931
T04
X340457Y280104
X330457Y280104
X320457Y280104
X310457Y280104
X300457Y280104
X350457Y280104
X360457Y280104
X370457Y280104
X386457Y280104
X396457Y280104
X406457Y280104
X416457Y280104
X426457Y280104
X436457Y280104
X446457Y280104
X456457Y280104
X476457Y280104
X486457Y280104
X496457Y280104
X506457Y280104
X516457Y280104
X526457Y280104
X536457Y280104
X546457Y280104
X576457Y280104
X586457Y280104
X586457Y270104
X576457Y270104
X576457Y260104
X586457Y260104
X586457Y250104
X576457Y250104
X576457Y240104
X586457Y240104
X586457Y230104
X576457Y230104
X576457Y220104
X586457Y220104
X586457Y210104
X576457Y210104
X576457Y200104
X586457Y200104
X586457Y190104
X576457Y190104
X576457Y180104
X586457Y180104
X586457Y170104
X576457Y170104
X576457Y160104
X586457Y160104
X586457Y150104
X576457Y150104
X576457Y140104
X586457Y140104
X586457Y130104
X576457Y130104
X576457Y120104
X586457Y120104
X586457Y110104
X576457Y110104
X566457Y90104
X556457Y90104
X546457Y90104
X536457Y90104
X526457Y90104
X516457Y90104
X506457Y90104
X496457Y90104
X476457Y90104
X466457Y90104
X456457Y90104
X446457Y90104
X436457Y90104
X426457Y90104
X416457Y90104
X406457Y90104
X386457Y90104
X376457Y90104
X366457Y90104
X356457Y90104
X346457Y90104
X336457Y90104
X222598Y64258
X222598Y54258
X222598Y44258
X222598Y34258
X222598Y24258
X222598Y14258
X115400Y333399
X115400Y354199
T05
X253189Y24435
X266969Y24435
X280748Y24435
X294528Y24435
X319646Y24435
X333425Y24435
X347205Y24435
X360984Y24435
T06
X91339Y382191
X51339Y402191
T07
X137928Y392073
X158428Y392073
X198028Y392073
X218528Y392073
T08
X99488Y305301
X69488Y305301
X39488Y305301
X39488Y195065
X54488Y195065
X69488Y195065
X84488Y195065
X99488Y195065
T09
X266457Y280104
X466457Y220104
X561457Y280104
X466457Y110104
X586457Y90104
X261457Y90104
T10
X666713Y16502
X666713Y353707
X253307Y400931
T11
X499940Y188914
M30
