G75*
%MOIN*%
%OFA0B0*%
%FSLAX25Y25*%
%IPPOS*%
%LPD*%
%AMOC8*
5,1,8,0,0,1.08239X$1,22.5*
%
%ADD10C,0.06000*%
%ADD11R,0.05700X0.03000*%
%ADD12R,0.04331X0.03937*%
%ADD13R,0.14500X0.05000*%
%ADD14R,0.02100X0.07100*%
%ADD15R,0.13504X0.06496*%
%ADD16R,0.05000X0.11496*%
%ADD17R,0.03000X0.05700*%
%ADD18R,0.03937X0.04331*%
%ADD19R,0.07100X0.02100*%
%ADD20R,0.05600X0.05600*%
%ADD21C,0.05600*%
%ADD22R,0.11024X0.11024*%
%ADD23C,0.11024*%
%ADD24R,0.06496X0.13504*%
%ADD25R,0.11496X0.05000*%
%ADD26C,0.06000*%
%ADD27R,0.25500X0.35400*%
%ADD28R,0.07650X0.07650*%
%ADD29R,0.02400X0.09650*%
%ADD30R,0.05709X0.06693*%
%ADD31C,0.07050*%
%ADD32R,0.07087X0.12598*%
%ADD33C,0.07000*%
%ADD34R,0.08661X0.06299*%
%ADD35R,0.07087X0.02756*%
%ADD36R,0.01400X0.05800*%
%ADD37C,0.07400*%
%ADD38OC8,0.07400*%
%ADD39C,0.06693*%
%ADD40C,0.00984*%
%ADD41C,0.02978*%
%ADD42C,0.03937*%
%ADD43C,0.00591*%
%ADD44C,0.00600*%
%ADD45C,0.01969*%
%ADD46C,0.07874*%
D10*
X0219598Y0014258D02*
X0225598Y0014258D01*
X0225598Y0024258D02*
X0219598Y0024258D01*
X0219598Y0034258D02*
X0225598Y0034258D01*
X0225598Y0044258D02*
X0219598Y0044258D01*
X0219598Y0054258D02*
X0225598Y0054258D01*
X0225598Y0064258D02*
X0219598Y0064258D01*
D11*
X0245191Y0210432D03*
X0253228Y0210432D03*
X0261169Y0210432D03*
X0269273Y0210432D03*
X0277377Y0210432D03*
X0285481Y0210432D03*
X0293586Y0210432D03*
X0301690Y0210432D03*
X0301690Y0218832D03*
X0293586Y0218832D03*
X0285481Y0218832D03*
X0277377Y0218832D03*
X0269273Y0218832D03*
X0261169Y0218832D03*
X0253228Y0218832D03*
X0245191Y0218832D03*
X0163031Y0218030D03*
X0163031Y0226430D03*
D12*
X0245129Y0197250D03*
X0245129Y0190557D03*
X0253228Y0190557D03*
X0261046Y0190557D03*
X0269089Y0190557D03*
X0277132Y0190557D03*
X0285174Y0190557D03*
X0293217Y0190557D03*
X0293217Y0197250D03*
X0285174Y0197250D03*
X0277132Y0197250D03*
X0269089Y0197250D03*
X0261046Y0197250D03*
X0253228Y0197250D03*
X0258228Y0177821D03*
X0264016Y0177900D03*
X0264016Y0171207D03*
X0258228Y0171128D03*
X0301260Y0190557D03*
X0301260Y0197250D03*
X0599961Y0296325D03*
X0606654Y0296325D03*
X0636142Y0296325D03*
X0642835Y0296325D03*
X0642835Y0353018D03*
X0636142Y0353018D03*
X0619724Y0353411D03*
X0613031Y0353411D03*
X0606457Y0353411D03*
X0599764Y0353411D03*
D13*
X0220711Y0284041D03*
X0220711Y0274041D03*
X0220711Y0264041D03*
X0220711Y0254041D03*
X0220711Y0244041D03*
X0220711Y0234041D03*
X0220711Y0224041D03*
X0220711Y0214041D03*
X0220711Y0204041D03*
X0220711Y0194041D03*
X0220711Y0184041D03*
X0220711Y0174041D03*
X0220711Y0164041D03*
X0220711Y0154041D03*
X0220711Y0144041D03*
X0220711Y0134041D03*
X0220711Y0124041D03*
X0220711Y0114041D03*
X0220711Y0104041D03*
X0220711Y0094041D03*
X0201211Y0094041D03*
X0201211Y0104041D03*
X0201211Y0114041D03*
X0201211Y0124041D03*
X0201211Y0134041D03*
X0201211Y0144041D03*
X0201211Y0154041D03*
X0201211Y0164041D03*
X0201211Y0174041D03*
X0201211Y0184041D03*
X0201211Y0194041D03*
X0201211Y0204041D03*
X0201211Y0214041D03*
X0201211Y0224041D03*
X0201211Y0234041D03*
X0201211Y0244041D03*
X0201211Y0254041D03*
X0201211Y0264041D03*
X0201211Y0274041D03*
X0201211Y0284041D03*
D14*
X0255374Y0157723D03*
X0260374Y0157723D03*
X0265374Y0157723D03*
X0270374Y0157723D03*
X0275374Y0157723D03*
X0280374Y0157723D03*
X0285374Y0157723D03*
X0290374Y0157723D03*
X0290374Y0120123D03*
X0285374Y0120123D03*
X0280374Y0120123D03*
X0275374Y0120123D03*
X0270374Y0120123D03*
X0265374Y0120123D03*
X0260374Y0120123D03*
X0255374Y0120123D03*
D15*
X0159646Y0187270D03*
X0129094Y0187270D03*
X0275276Y0347230D03*
X0305827Y0347230D03*
X0327441Y0348746D03*
X0357992Y0348746D03*
X0375591Y0348746D03*
X0406142Y0348746D03*
X0424528Y0348746D03*
X0455079Y0348746D03*
X0475748Y0348746D03*
X0506299Y0348746D03*
X0524646Y0348746D03*
X0555197Y0348746D03*
X0540354Y0021364D03*
X0517835Y0021364D03*
X0463661Y0021364D03*
X0440748Y0021364D03*
X0386575Y0021364D03*
X0594528Y0021364D03*
D16*
X0579252Y0042900D03*
X0567441Y0042900D03*
X0555630Y0042900D03*
X0555630Y0061128D03*
X0567441Y0061128D03*
X0579252Y0061128D03*
X0502559Y0061128D03*
X0490748Y0061128D03*
X0478937Y0061128D03*
X0478937Y0042900D03*
X0490748Y0042900D03*
X0502559Y0042900D03*
X0425472Y0042900D03*
X0413661Y0042900D03*
X0401850Y0042900D03*
X0401850Y0061128D03*
X0413661Y0061128D03*
X0425472Y0061128D03*
X0144370Y0208805D03*
X0144370Y0227033D03*
X0290551Y0307467D03*
X0290551Y0325695D03*
X0342717Y0327211D03*
X0342717Y0308982D03*
X0390866Y0308982D03*
X0390866Y0327211D03*
X0439803Y0327211D03*
X0439803Y0308982D03*
X0491024Y0308982D03*
X0491024Y0327211D03*
X0539921Y0327211D03*
X0539921Y0308982D03*
D17*
X0341326Y0185104D03*
X0332926Y0185104D03*
X0332926Y0177174D03*
X0341326Y0177174D03*
X0341326Y0169244D03*
X0332926Y0169244D03*
X0332926Y0161314D03*
X0341326Y0161314D03*
X0341326Y0153383D03*
X0332926Y0153383D03*
X0332926Y0145453D03*
X0341326Y0145453D03*
X0341326Y0137523D03*
X0341326Y0129593D03*
X0332926Y0129593D03*
X0332926Y0137523D03*
X0221680Y0315380D03*
X0213280Y0315380D03*
X0082231Y0371719D03*
X0073831Y0371719D03*
D18*
X0060276Y0371955D03*
X0053583Y0371955D03*
X0193425Y0315262D03*
X0200118Y0315262D03*
X0354862Y0185104D03*
X0361555Y0185104D03*
X0361555Y0177174D03*
X0354862Y0177174D03*
X0354862Y0169244D03*
X0361555Y0169244D03*
X0361555Y0161314D03*
X0354862Y0161314D03*
X0354862Y0153383D03*
X0361555Y0153383D03*
X0361555Y0145453D03*
X0354862Y0145453D03*
X0354862Y0137523D03*
X0361555Y0137523D03*
X0361555Y0129593D03*
X0354862Y0129593D03*
X0396102Y0132427D03*
X0402795Y0132427D03*
X0402913Y0139199D03*
X0396220Y0139199D03*
X0652835Y0329396D03*
X0652835Y0336089D03*
D19*
X0418603Y0182447D03*
X0418603Y0177447D03*
X0418603Y0172447D03*
X0418603Y0167447D03*
X0418603Y0162447D03*
X0418603Y0157447D03*
X0418603Y0152447D03*
X0418603Y0147447D03*
X0381003Y0147447D03*
X0381003Y0152447D03*
X0381003Y0157447D03*
X0381003Y0162447D03*
X0381003Y0167447D03*
X0381003Y0172447D03*
X0381003Y0177447D03*
X0381003Y0182447D03*
D20*
X0137087Y0248175D03*
D21*
X0137087Y0258175D03*
X0137087Y0268175D03*
X0137087Y0278175D03*
X0137087Y0288175D03*
X0137087Y0298175D03*
X0137087Y0308175D03*
X0137087Y0318175D03*
X0137087Y0328175D03*
X0137087Y0338175D03*
X0137087Y0348175D03*
X0137087Y0358175D03*
D22*
X0099488Y0305301D03*
D23*
X0069488Y0305301D03*
X0039488Y0305301D03*
X0039488Y0195065D03*
X0054488Y0195065D03*
X0069488Y0195065D03*
X0084488Y0195065D03*
X0099488Y0195065D03*
D24*
X0660787Y0209435D03*
X0660787Y0225734D03*
X0660787Y0279907D03*
X0660787Y0155262D03*
X0660787Y0137545D03*
X0660787Y0095183D03*
D25*
X0639252Y0110459D03*
X0639252Y0122270D03*
X0621024Y0122270D03*
X0621024Y0110459D03*
X0621024Y0170537D03*
X0621024Y0182348D03*
X0621024Y0194159D03*
X0639252Y0194159D03*
X0639252Y0182348D03*
X0639252Y0170537D03*
X0639252Y0241010D03*
X0639252Y0252821D03*
X0639252Y0264632D03*
X0621024Y0264632D03*
X0621024Y0252821D03*
X0621024Y0241010D03*
D26*
X0115400Y0333399D03*
X0115400Y0354199D03*
D27*
X0041200Y0343805D03*
D28*
X0137928Y0392073D03*
X0158428Y0392073D03*
X0198028Y0392073D03*
X0218528Y0392073D03*
D29*
X0588189Y0342099D03*
X0598189Y0342099D03*
X0608189Y0342099D03*
X0618189Y0342099D03*
X0618189Y0306849D03*
X0608189Y0306849D03*
X0598189Y0306849D03*
X0588189Y0306849D03*
D30*
X0634488Y0306561D03*
X0644488Y0306561D03*
X0644488Y0343569D03*
X0634488Y0343569D03*
D31*
X0091339Y0378666D02*
X0091339Y0385716D01*
X0051339Y0398666D02*
X0051339Y0405716D01*
D32*
X0251063Y0307427D03*
X0273110Y0307427D03*
D33*
X0336220Y0230931D03*
X0336220Y0220931D03*
X0336220Y0210931D03*
X0336220Y0200931D03*
D34*
X0670197Y0081384D03*
X0670197Y0037486D03*
D35*
X0659567Y0047132D03*
X0659567Y0052053D03*
X0659567Y0056974D03*
X0659567Y0061896D03*
X0659567Y0066817D03*
X0659567Y0071738D03*
D36*
X0525220Y0206203D03*
X0522620Y0206203D03*
X0520120Y0206203D03*
X0517520Y0206203D03*
X0514920Y0206203D03*
X0512420Y0206203D03*
X0509820Y0206203D03*
X0509820Y0229203D03*
X0512420Y0229203D03*
X0514920Y0229203D03*
X0517520Y0229203D03*
X0520120Y0229203D03*
X0522620Y0229203D03*
X0525220Y0229203D03*
D37*
X0526457Y0280104D03*
X0536457Y0280104D03*
X0546457Y0280104D03*
X0516457Y0280104D03*
X0506457Y0280104D03*
X0496457Y0280104D03*
X0486457Y0280104D03*
X0476457Y0280104D03*
X0456457Y0280104D03*
X0446457Y0280104D03*
X0436457Y0280104D03*
X0426457Y0280104D03*
X0416457Y0280104D03*
X0406457Y0280104D03*
X0396457Y0280104D03*
X0386457Y0280104D03*
X0370457Y0280104D03*
X0360457Y0280104D03*
X0350457Y0280104D03*
X0340457Y0280104D03*
X0330457Y0280104D03*
X0320457Y0280104D03*
X0310457Y0280104D03*
X0300457Y0280104D03*
X0576457Y0280104D03*
X0586457Y0280104D03*
X0586457Y0110104D03*
X0576457Y0110104D03*
X0566457Y0090104D03*
X0556457Y0090104D03*
X0546457Y0090104D03*
X0536457Y0090104D03*
X0526457Y0090104D03*
X0516457Y0090104D03*
X0506457Y0090104D03*
X0496457Y0090104D03*
X0476457Y0090104D03*
X0466457Y0090104D03*
X0456457Y0090104D03*
X0446457Y0090104D03*
X0436457Y0090104D03*
X0426457Y0090104D03*
X0416457Y0090104D03*
X0406457Y0090104D03*
X0386457Y0090104D03*
X0376457Y0090104D03*
X0366457Y0090104D03*
X0356457Y0090104D03*
X0346457Y0090104D03*
X0336457Y0090104D03*
D38*
X0576457Y0120104D03*
X0586457Y0120104D03*
X0586457Y0130104D03*
X0576457Y0130104D03*
X0576457Y0140104D03*
X0586457Y0140104D03*
X0586457Y0150104D03*
X0576457Y0150104D03*
X0576457Y0160104D03*
X0586457Y0160104D03*
X0586457Y0170104D03*
X0576457Y0170104D03*
X0576457Y0180104D03*
X0586457Y0180104D03*
X0586457Y0190104D03*
X0576457Y0190104D03*
X0576457Y0200104D03*
X0586457Y0200104D03*
X0586457Y0210104D03*
X0576457Y0210104D03*
X0576457Y0220104D03*
X0586457Y0220104D03*
X0586457Y0230104D03*
X0576457Y0230104D03*
X0576457Y0240104D03*
X0586457Y0240104D03*
X0586457Y0250104D03*
X0576457Y0250104D03*
X0576457Y0260104D03*
X0586457Y0260104D03*
X0586457Y0270104D03*
X0576457Y0270104D03*
D39*
X0360984Y0024435D03*
X0347205Y0024435D03*
X0333425Y0024435D03*
X0319646Y0024435D03*
X0294528Y0024435D03*
X0280748Y0024435D03*
X0266969Y0024435D03*
X0253189Y0024435D03*
D40*
X0184126Y0011895D02*
X0183754Y0013283D01*
X0183707Y0014002D01*
X0183707Y0161264D01*
X0182719Y0164951D01*
X0180811Y0168256D01*
X0178112Y0170954D01*
X0174807Y0172863D01*
X0171121Y0173850D01*
X0136693Y0173850D01*
X0136693Y0182758D01*
X0137339Y0183404D01*
X0137339Y0191136D01*
X0136693Y0191781D01*
X0136693Y0217388D01*
X0158689Y0217388D01*
X0158689Y0215912D01*
X0159563Y0215038D01*
X0160836Y0215038D01*
X0160544Y0214746D01*
X0160090Y0213650D01*
X0160090Y0212464D01*
X0160544Y0211368D01*
X0161382Y0210530D01*
X0162478Y0210076D01*
X0163664Y0210076D01*
X0164760Y0210530D01*
X0165598Y0211368D01*
X0166052Y0212464D01*
X0166052Y0213650D01*
X0165598Y0214746D01*
X0165306Y0215038D01*
X0166500Y0215038D01*
X0167374Y0215912D01*
X0167374Y0217388D01*
X0187465Y0217388D01*
X0187465Y0209086D01*
X0188646Y0207904D01*
X0188646Y0204361D01*
X0190950Y0202057D01*
X0192469Y0202057D01*
X0192469Y0200923D01*
X0193343Y0200049D01*
X0196295Y0200049D01*
X0196313Y0198033D01*
X0193343Y0198033D01*
X0192469Y0197159D01*
X0192469Y0190923D01*
X0193343Y0190049D01*
X0196384Y0190049D01*
X0196402Y0188033D01*
X0193343Y0188033D01*
X0192469Y0187159D01*
X0192469Y0180923D01*
X0193343Y0180049D01*
X0196472Y0180049D01*
X0196490Y0178033D01*
X0193343Y0178033D01*
X0192469Y0177159D01*
X0192469Y0170923D01*
X0193343Y0170049D01*
X0196561Y0170049D01*
X0196578Y0168033D01*
X0193343Y0168033D01*
X0192469Y0167159D01*
X0192469Y0166026D01*
X0192271Y0166026D01*
X0191531Y0166765D01*
X0190435Y0167219D01*
X0189250Y0167219D01*
X0188154Y0166765D01*
X0187315Y0165927D01*
X0186861Y0164831D01*
X0186861Y0163645D01*
X0187315Y0162550D01*
X0188154Y0161711D01*
X0189250Y0161257D01*
X0190435Y0161257D01*
X0191531Y0161711D01*
X0191877Y0162057D01*
X0192469Y0162057D01*
X0192469Y0160923D01*
X0193343Y0160049D01*
X0196649Y0160049D01*
X0196667Y0158033D01*
X0193343Y0158033D01*
X0192469Y0157159D01*
X0192469Y0150923D01*
X0193343Y0150049D01*
X0196738Y0150049D01*
X0196755Y0148033D01*
X0193343Y0148033D01*
X0192469Y0147159D01*
X0192469Y0140923D01*
X0193343Y0140049D01*
X0196826Y0140049D01*
X0196844Y0138033D01*
X0193343Y0138033D01*
X0192469Y0137159D01*
X0192469Y0130923D01*
X0193343Y0130049D01*
X0196915Y0130049D01*
X0196932Y0128033D01*
X0193343Y0128033D01*
X0192469Y0127159D01*
X0192469Y0120923D01*
X0193343Y0120049D01*
X0197003Y0120049D01*
X0197021Y0118033D01*
X0193343Y0118033D01*
X0192469Y0117159D01*
X0192469Y0110923D01*
X0193343Y0110049D01*
X0197092Y0110049D01*
X0197109Y0108033D01*
X0193343Y0108033D01*
X0192469Y0107159D01*
X0192469Y0100923D01*
X0193343Y0100049D01*
X0197180Y0100049D01*
X0197198Y0098033D01*
X0193343Y0098033D01*
X0192469Y0097159D01*
X0192469Y0096026D01*
X0191405Y0096026D01*
X0190744Y0096687D01*
X0189648Y0097141D01*
X0188462Y0097141D01*
X0187366Y0096687D01*
X0186528Y0095848D01*
X0186074Y0094752D01*
X0186074Y0093566D01*
X0186528Y0092471D01*
X0187366Y0091632D01*
X0188462Y0091178D01*
X0189648Y0091178D01*
X0190744Y0091632D01*
X0191169Y0092057D01*
X0192469Y0092057D01*
X0192469Y0090923D01*
X0193343Y0090049D01*
X0197269Y0090049D01*
X0197717Y0039435D01*
X0247717Y0039435D01*
X0247717Y0018569D01*
X0276965Y0018569D01*
X0277922Y0017612D01*
X0283574Y0017612D01*
X0284531Y0018569D01*
X0305197Y0018569D01*
X0305197Y0087467D01*
X0318976Y0101246D01*
X0389843Y0101246D01*
X0391195Y0099893D01*
X0390417Y0099115D01*
X0390417Y0093486D01*
X0390417Y0093487D01*
X0389839Y0094065D01*
X0389178Y0094545D01*
X0388450Y0094916D01*
X0387673Y0095169D01*
X0386949Y0095283D01*
X0386949Y0090597D01*
X0385965Y0090597D01*
X0385965Y0095283D01*
X0385241Y0095169D01*
X0384464Y0094916D01*
X0383735Y0094545D01*
X0383074Y0094065D01*
X0382496Y0093487D01*
X0382016Y0092826D01*
X0381645Y0092097D01*
X0381472Y0091564D01*
X0380858Y0093045D01*
X0379398Y0094506D01*
X0377489Y0095296D01*
X0375424Y0095296D01*
X0373516Y0094506D01*
X0372055Y0093045D01*
X0371457Y0091601D01*
X0370858Y0093045D01*
X0369398Y0094506D01*
X0367489Y0095296D01*
X0365424Y0095296D01*
X0363516Y0094506D01*
X0362055Y0093045D01*
X0361457Y0091601D01*
X0360858Y0093045D01*
X0359398Y0094506D01*
X0357489Y0095296D01*
X0355424Y0095296D01*
X0353516Y0094506D01*
X0352055Y0093045D01*
X0351457Y0091601D01*
X0350858Y0093045D01*
X0349398Y0094506D01*
X0347489Y0095296D01*
X0345424Y0095296D01*
X0343516Y0094506D01*
X0342055Y0093045D01*
X0341457Y0091601D01*
X0340858Y0093045D01*
X0339398Y0094506D01*
X0337489Y0095296D01*
X0335424Y0095296D01*
X0333516Y0094506D01*
X0332055Y0093045D01*
X0331265Y0091137D01*
X0331265Y0089072D01*
X0332055Y0087163D01*
X0333516Y0085703D01*
X0335424Y0084912D01*
X0337489Y0084912D01*
X0339398Y0085703D01*
X0340858Y0087163D01*
X0341457Y0088608D01*
X0342055Y0087163D01*
X0343516Y0085703D01*
X0345424Y0084912D01*
X0347489Y0084912D01*
X0349398Y0085703D01*
X0350858Y0087163D01*
X0351457Y0088608D01*
X0352055Y0087163D01*
X0353516Y0085703D01*
X0355424Y0084912D01*
X0357489Y0084912D01*
X0359398Y0085703D01*
X0360858Y0087163D01*
X0361457Y0088608D01*
X0362055Y0087163D01*
X0363516Y0085703D01*
X0365424Y0084912D01*
X0367489Y0084912D01*
X0369398Y0085703D01*
X0370858Y0087163D01*
X0371457Y0088608D01*
X0372055Y0087163D01*
X0373516Y0085703D01*
X0375424Y0084912D01*
X0377489Y0084912D01*
X0379398Y0085703D01*
X0380858Y0087163D01*
X0381472Y0088644D01*
X0381645Y0088111D01*
X0382016Y0087383D01*
X0382496Y0086722D01*
X0383074Y0086144D01*
X0383735Y0085664D01*
X0384464Y0085293D01*
X0385241Y0085040D01*
X0385965Y0084925D01*
X0385965Y0089612D01*
X0386949Y0089612D01*
X0386949Y0084925D01*
X0387673Y0085040D01*
X0388450Y0085293D01*
X0389178Y0085664D01*
X0389839Y0086144D01*
X0390417Y0086722D01*
X0390417Y0086722D01*
X0390417Y0080611D01*
X0384296Y0074490D01*
X0383134Y0073328D01*
X0383134Y0073278D01*
X0374488Y0064632D01*
X0342598Y0064632D01*
X0328819Y0050852D01*
X0328819Y0025958D01*
X0328587Y0025397D01*
X0328587Y0023473D01*
X0328819Y0022912D01*
X0328819Y0008496D01*
X0189213Y0008496D01*
X0188494Y0008543D01*
X0187106Y0008915D01*
X0185861Y0009634D01*
X0184844Y0010650D01*
X0184126Y0011895D01*
X0183987Y0012412D02*
X0215501Y0012412D01*
X0215790Y0011713D02*
X0217054Y0010450D01*
X0218705Y0009766D01*
X0226492Y0009766D01*
X0228143Y0010450D01*
X0229407Y0011713D01*
X0230091Y0013364D01*
X0230091Y0015151D01*
X0229407Y0016802D01*
X0228143Y0018066D01*
X0226492Y0018750D01*
X0218705Y0018750D01*
X0217054Y0018066D01*
X0215790Y0016802D01*
X0215106Y0015151D01*
X0215106Y0013364D01*
X0215790Y0011713D01*
X0216074Y0011429D02*
X0184395Y0011429D01*
X0185048Y0010446D02*
X0217062Y0010446D01*
X0215106Y0013395D02*
X0183746Y0013395D01*
X0183707Y0014377D02*
X0215106Y0014377D01*
X0215193Y0015360D02*
X0183707Y0015360D01*
X0183707Y0016343D02*
X0215600Y0016343D01*
X0216313Y0017326D02*
X0183707Y0017326D01*
X0183707Y0018308D02*
X0217639Y0018308D01*
X0218705Y0019766D02*
X0217054Y0020450D01*
X0215790Y0021713D01*
X0215106Y0023364D01*
X0215106Y0025151D01*
X0215790Y0026802D01*
X0217054Y0028066D01*
X0218705Y0028750D01*
X0226492Y0028750D01*
X0228143Y0028066D01*
X0229407Y0026802D01*
X0230091Y0025151D01*
X0230091Y0023364D01*
X0229407Y0021713D01*
X0228143Y0020450D01*
X0226492Y0019766D01*
X0218705Y0019766D01*
X0217478Y0020274D02*
X0183707Y0020274D01*
X0183707Y0019291D02*
X0247717Y0019291D01*
X0247717Y0020274D02*
X0227719Y0020274D01*
X0228950Y0021257D02*
X0247717Y0021257D01*
X0247717Y0022240D02*
X0229625Y0022240D01*
X0230032Y0023222D02*
X0247717Y0023222D01*
X0247717Y0024205D02*
X0230091Y0024205D01*
X0230075Y0025188D02*
X0247717Y0025188D01*
X0247717Y0026171D02*
X0229668Y0026171D01*
X0229056Y0027153D02*
X0247717Y0027153D01*
X0247717Y0028136D02*
X0227974Y0028136D01*
X0227303Y0030102D02*
X0247717Y0030102D01*
X0247717Y0031084D02*
X0228778Y0031084D01*
X0229407Y0031713D02*
X0230091Y0033364D01*
X0230091Y0035151D01*
X0229407Y0036802D01*
X0228143Y0038066D01*
X0226492Y0038750D01*
X0218705Y0038750D01*
X0217054Y0038066D01*
X0215790Y0036802D01*
X0215106Y0035151D01*
X0215106Y0033364D01*
X0215790Y0031713D01*
X0217054Y0030450D01*
X0218705Y0029766D01*
X0226492Y0029766D01*
X0228143Y0030450D01*
X0229407Y0031713D01*
X0229553Y0032067D02*
X0247717Y0032067D01*
X0247717Y0033050D02*
X0229960Y0033050D01*
X0230091Y0034033D02*
X0247717Y0034033D01*
X0247717Y0035015D02*
X0230091Y0035015D01*
X0229740Y0035998D02*
X0247717Y0035998D01*
X0247717Y0036981D02*
X0229228Y0036981D01*
X0228245Y0037964D02*
X0247717Y0037964D01*
X0247717Y0038947D02*
X0183707Y0038947D01*
X0183707Y0039929D02*
X0197712Y0039929D01*
X0197703Y0040912D02*
X0183707Y0040912D01*
X0183707Y0041895D02*
X0197695Y0041895D01*
X0197686Y0042878D02*
X0183707Y0042878D01*
X0183707Y0043860D02*
X0197677Y0043860D01*
X0197669Y0044843D02*
X0183707Y0044843D01*
X0183707Y0045826D02*
X0197660Y0045826D01*
X0197651Y0046809D02*
X0183707Y0046809D01*
X0183707Y0047791D02*
X0197643Y0047791D01*
X0197634Y0048774D02*
X0183707Y0048774D01*
X0183707Y0049757D02*
X0197625Y0049757D01*
X0197616Y0050740D02*
X0183707Y0050740D01*
X0183707Y0051722D02*
X0197608Y0051722D01*
X0197599Y0052705D02*
X0183707Y0052705D01*
X0183707Y0053688D02*
X0197590Y0053688D01*
X0197582Y0054671D02*
X0183707Y0054671D01*
X0183707Y0055653D02*
X0197573Y0055653D01*
X0197564Y0056636D02*
X0183707Y0056636D01*
X0183707Y0057619D02*
X0197556Y0057619D01*
X0197547Y0058602D02*
X0183707Y0058602D01*
X0183707Y0059585D02*
X0197538Y0059585D01*
X0197530Y0060567D02*
X0183707Y0060567D01*
X0183707Y0061550D02*
X0197521Y0061550D01*
X0197512Y0062533D02*
X0183707Y0062533D01*
X0183707Y0063516D02*
X0197503Y0063516D01*
X0197495Y0064498D02*
X0183707Y0064498D01*
X0183707Y0065481D02*
X0197486Y0065481D01*
X0197477Y0066464D02*
X0183707Y0066464D01*
X0183707Y0067447D02*
X0197469Y0067447D01*
X0197460Y0068429D02*
X0183707Y0068429D01*
X0183707Y0069412D02*
X0197451Y0069412D01*
X0197443Y0070395D02*
X0183707Y0070395D01*
X0183707Y0071378D02*
X0197434Y0071378D01*
X0197425Y0072360D02*
X0183707Y0072360D01*
X0183707Y0073343D02*
X0197416Y0073343D01*
X0197408Y0074326D02*
X0183707Y0074326D01*
X0183707Y0075309D02*
X0197399Y0075309D01*
X0197390Y0076292D02*
X0183707Y0076292D01*
X0183707Y0077274D02*
X0197382Y0077274D01*
X0197373Y0078257D02*
X0183707Y0078257D01*
X0183707Y0079240D02*
X0197364Y0079240D01*
X0197356Y0080223D02*
X0183707Y0080223D01*
X0183707Y0081205D02*
X0197347Y0081205D01*
X0197338Y0082188D02*
X0183707Y0082188D01*
X0183707Y0083171D02*
X0197329Y0083171D01*
X0197321Y0084154D02*
X0183707Y0084154D01*
X0183707Y0085136D02*
X0197312Y0085136D01*
X0197303Y0086119D02*
X0183707Y0086119D01*
X0183707Y0087102D02*
X0197295Y0087102D01*
X0197286Y0088085D02*
X0183707Y0088085D01*
X0183707Y0089067D02*
X0197277Y0089067D01*
X0193342Y0090050D02*
X0183707Y0090050D01*
X0183707Y0091033D02*
X0192469Y0091033D01*
X0192469Y0092016D02*
X0191127Y0092016D01*
X0189173Y0094041D02*
X0189055Y0094159D01*
X0189173Y0094041D02*
X0201211Y0094041D01*
X0197190Y0098895D02*
X0183707Y0098895D01*
X0183707Y0097912D02*
X0193221Y0097912D01*
X0192469Y0096930D02*
X0190157Y0096930D01*
X0187953Y0096930D02*
X0183707Y0096930D01*
X0183707Y0095947D02*
X0186627Y0095947D01*
X0186162Y0094964D02*
X0183707Y0094964D01*
X0183707Y0093981D02*
X0186074Y0093981D01*
X0186309Y0092998D02*
X0183707Y0092998D01*
X0183707Y0092016D02*
X0186983Y0092016D01*
X0183707Y0099878D02*
X0197182Y0099878D01*
X0192531Y0100861D02*
X0183707Y0100861D01*
X0183707Y0101843D02*
X0192469Y0101843D01*
X0192469Y0102826D02*
X0183707Y0102826D01*
X0183707Y0103809D02*
X0192469Y0103809D01*
X0192469Y0104792D02*
X0183707Y0104792D01*
X0183707Y0105774D02*
X0192469Y0105774D01*
X0192469Y0106757D02*
X0183707Y0106757D01*
X0183707Y0107740D02*
X0193049Y0107740D01*
X0192704Y0110688D02*
X0183707Y0110688D01*
X0183707Y0109705D02*
X0197095Y0109705D01*
X0197103Y0108723D02*
X0183707Y0108723D01*
X0183707Y0111671D02*
X0192469Y0111671D01*
X0192469Y0112654D02*
X0183707Y0112654D01*
X0183707Y0113637D02*
X0192469Y0113637D01*
X0192469Y0114619D02*
X0183707Y0114619D01*
X0183707Y0115602D02*
X0192469Y0115602D01*
X0192469Y0116585D02*
X0183707Y0116585D01*
X0183707Y0117568D02*
X0192877Y0117568D01*
X0192876Y0120516D02*
X0183707Y0120516D01*
X0183707Y0121499D02*
X0192469Y0121499D01*
X0192469Y0122481D02*
X0183707Y0122481D01*
X0183707Y0123464D02*
X0192469Y0123464D01*
X0192469Y0124447D02*
X0183707Y0124447D01*
X0183707Y0125430D02*
X0192469Y0125430D01*
X0192469Y0126412D02*
X0183707Y0126412D01*
X0183707Y0127395D02*
X0192704Y0127395D01*
X0193048Y0130344D02*
X0183707Y0130344D01*
X0183707Y0131326D02*
X0192469Y0131326D01*
X0192469Y0132309D02*
X0183707Y0132309D01*
X0183707Y0133292D02*
X0192469Y0133292D01*
X0192469Y0134275D02*
X0183707Y0134275D01*
X0183707Y0135257D02*
X0192469Y0135257D01*
X0192469Y0136240D02*
X0183707Y0136240D01*
X0183707Y0137223D02*
X0192532Y0137223D01*
X0193221Y0140171D02*
X0183707Y0140171D01*
X0183707Y0139188D02*
X0196834Y0139188D01*
X0196842Y0138206D02*
X0183707Y0138206D01*
X0183707Y0141154D02*
X0192469Y0141154D01*
X0192469Y0142137D02*
X0183707Y0142137D01*
X0183707Y0143119D02*
X0192469Y0143119D01*
X0192469Y0144102D02*
X0183707Y0144102D01*
X0183707Y0145085D02*
X0192469Y0145085D01*
X0192469Y0146068D02*
X0183707Y0146068D01*
X0183707Y0147050D02*
X0192469Y0147050D01*
X0193342Y0148033D02*
X0183707Y0148033D01*
X0183707Y0149016D02*
X0196747Y0149016D01*
X0196738Y0149999D02*
X0183707Y0149999D01*
X0183707Y0150982D02*
X0192469Y0150982D01*
X0192469Y0151964D02*
X0183707Y0151964D01*
X0183707Y0152947D02*
X0192469Y0152947D01*
X0192469Y0153930D02*
X0183707Y0153930D01*
X0183707Y0154913D02*
X0192469Y0154913D01*
X0192469Y0155895D02*
X0183707Y0155895D01*
X0183707Y0156878D02*
X0192469Y0156878D01*
X0193170Y0157861D02*
X0183707Y0157861D01*
X0183707Y0158844D02*
X0196660Y0158844D01*
X0196651Y0159826D02*
X0183707Y0159826D01*
X0183707Y0160809D02*
X0192583Y0160809D01*
X0192469Y0161792D02*
X0191612Y0161792D01*
X0190039Y0164041D02*
X0189843Y0164238D01*
X0190039Y0164041D02*
X0201211Y0164041D01*
X0196573Y0168671D02*
X0180395Y0168671D01*
X0180811Y0168256D02*
X0180811Y0168256D01*
X0181138Y0167689D02*
X0192998Y0167689D01*
X0192469Y0166706D02*
X0191591Y0166706D01*
X0188094Y0166706D02*
X0181706Y0166706D01*
X0182273Y0165723D02*
X0187231Y0165723D01*
X0186861Y0164740D02*
X0182775Y0164740D01*
X0182719Y0164951D02*
X0182719Y0164951D01*
X0183039Y0163757D02*
X0186861Y0163757D01*
X0187222Y0162775D02*
X0183302Y0162775D01*
X0183565Y0161792D02*
X0188073Y0161792D01*
X0192755Y0170637D02*
X0178430Y0170637D01*
X0178112Y0170954D02*
X0178112Y0170954D01*
X0176960Y0171620D02*
X0192469Y0171620D01*
X0192469Y0172602D02*
X0175258Y0172602D01*
X0174807Y0172863D02*
X0174807Y0172863D01*
X0172111Y0173585D02*
X0192469Y0173585D01*
X0192469Y0174568D02*
X0136693Y0174568D01*
X0136693Y0175551D02*
X0192469Y0175551D01*
X0192469Y0176533D02*
X0136693Y0176533D01*
X0136693Y0177516D02*
X0192825Y0177516D01*
X0192927Y0180464D02*
X0136693Y0180464D01*
X0136693Y0179482D02*
X0196477Y0179482D01*
X0196486Y0178499D02*
X0136693Y0178499D01*
X0136693Y0181447D02*
X0192469Y0181447D01*
X0192469Y0182430D02*
X0136693Y0182430D01*
X0137339Y0183413D02*
X0151402Y0183413D01*
X0151402Y0183404D02*
X0152276Y0182530D01*
X0167016Y0182530D01*
X0167890Y0183404D01*
X0167890Y0191136D01*
X0167016Y0192010D01*
X0152276Y0192010D01*
X0151402Y0191136D01*
X0151402Y0183404D01*
X0151402Y0184395D02*
X0137339Y0184395D01*
X0137339Y0185378D02*
X0151402Y0185378D01*
X0151402Y0186361D02*
X0137339Y0186361D01*
X0137339Y0187344D02*
X0151402Y0187344D01*
X0151402Y0188327D02*
X0137339Y0188327D01*
X0137339Y0189309D02*
X0151402Y0189309D01*
X0151402Y0190292D02*
X0137339Y0190292D01*
X0137200Y0191275D02*
X0151541Y0191275D01*
X0136693Y0192258D02*
X0192469Y0192258D01*
X0192469Y0193240D02*
X0136693Y0193240D01*
X0136693Y0194223D02*
X0192469Y0194223D01*
X0192469Y0195206D02*
X0136693Y0195206D01*
X0136693Y0196189D02*
X0192469Y0196189D01*
X0192481Y0197171D02*
X0136693Y0197171D01*
X0136693Y0198154D02*
X0196312Y0198154D01*
X0196303Y0199137D02*
X0136693Y0199137D01*
X0136693Y0200120D02*
X0193272Y0200120D01*
X0192469Y0201102D02*
X0136693Y0201102D01*
X0136693Y0202085D02*
X0140732Y0202085D01*
X0112677Y0202085D01*
X0112677Y0202033D02*
X0112677Y0213451D01*
X0091024Y0235104D01*
X0091024Y0258726D01*
X0104803Y0272506D01*
X0118583Y0272506D01*
X0128819Y0282742D01*
X0149685Y0282742D01*
X0149685Y0262270D01*
X0141417Y0254002D01*
X0138132Y0254002D01*
X0138734Y0254198D01*
X0139336Y0254504D01*
X0139883Y0254901D01*
X0140360Y0255379D01*
X0140758Y0255926D01*
X0141064Y0256528D01*
X0141273Y0257170D01*
X0141372Y0257792D01*
X0137470Y0257792D01*
X0137470Y0258558D01*
X0141372Y0258558D01*
X0141273Y0259180D01*
X0141064Y0259823D01*
X0140758Y0260425D01*
X0140360Y0260971D01*
X0139883Y0261449D01*
X0139336Y0261846D01*
X0138734Y0262153D01*
X0138092Y0262362D01*
X0137469Y0262460D01*
X0137469Y0258558D01*
X0136704Y0258558D01*
X0136704Y0262460D01*
X0136082Y0262362D01*
X0135439Y0262153D01*
X0134837Y0261846D01*
X0134290Y0261449D01*
X0133813Y0260971D01*
X0133416Y0260425D01*
X0133109Y0259823D01*
X0132900Y0259180D01*
X0132802Y0258558D01*
X0136704Y0258558D01*
X0136704Y0257792D01*
X0132802Y0257792D01*
X0132900Y0257170D01*
X0133109Y0256528D01*
X0133416Y0255926D01*
X0133813Y0255379D01*
X0134290Y0254901D01*
X0134837Y0254504D01*
X0135439Y0254198D01*
X0136041Y0254002D01*
X0130000Y0254002D01*
X0127638Y0251640D01*
X0127638Y0244159D01*
X0122913Y0239435D01*
X0122913Y0227230D01*
X0133150Y0216994D01*
X0153622Y0216994D01*
X0155984Y0214632D01*
X0155984Y0205183D01*
X0150866Y0200852D01*
X0148898Y0200852D01*
X0113465Y0201246D01*
X0112677Y0202033D01*
X0112677Y0203068D02*
X0140378Y0203068D01*
X0136693Y0203068D01*
X0136693Y0204051D02*
X0140378Y0204051D01*
X0112677Y0204051D01*
X0112677Y0205034D02*
X0140378Y0205034D01*
X0136693Y0205034D01*
X0136693Y0206016D02*
X0140378Y0206016D01*
X0112677Y0206016D01*
X0112677Y0206999D02*
X0140378Y0206999D01*
X0136693Y0206999D01*
X0136693Y0207982D02*
X0140378Y0207982D01*
X0112677Y0207982D01*
X0112677Y0208965D02*
X0143878Y0208965D01*
X0136693Y0208965D01*
X0136693Y0209947D02*
X0140378Y0209947D01*
X0112677Y0209947D01*
X0112677Y0210930D02*
X0140378Y0210930D01*
X0136693Y0210930D01*
X0136693Y0211913D02*
X0140378Y0211913D01*
X0112677Y0211913D01*
X0112677Y0212896D02*
X0140378Y0212896D01*
X0136693Y0212896D01*
X0136693Y0213878D02*
X0140378Y0213878D01*
X0112250Y0213878D01*
X0111267Y0214861D02*
X0140408Y0214861D01*
X0136693Y0214861D01*
X0136693Y0215844D02*
X0141122Y0215844D01*
X0110284Y0215844D01*
X0109301Y0216827D02*
X0153789Y0216827D01*
X0154772Y0215844D02*
X0147619Y0215844D01*
X0158758Y0215844D01*
X0158689Y0216827D02*
X0136693Y0216827D01*
X0140480Y0215129D02*
X0140378Y0214750D01*
X0140378Y0209297D01*
X0143878Y0209297D01*
X0143878Y0208313D01*
X0144862Y0208313D01*
X0144862Y0201565D01*
X0147067Y0201565D01*
X0147446Y0201667D01*
X0147786Y0201863D01*
X0148064Y0202141D01*
X0148261Y0202481D01*
X0148362Y0202861D01*
X0148362Y0208313D01*
X0144862Y0208313D01*
X0144862Y0201565D01*
X0147067Y0201565D01*
X0147446Y0201667D01*
X0147786Y0201863D01*
X0148064Y0202141D01*
X0148261Y0202481D01*
X0148362Y0202861D01*
X0148362Y0208313D01*
X0144862Y0208313D01*
X0143878Y0208313D01*
X0143878Y0201565D01*
X0141674Y0201565D01*
X0141294Y0201667D01*
X0140954Y0201863D01*
X0140676Y0202141D01*
X0140480Y0202481D01*
X0140378Y0202861D01*
X0140378Y0208313D01*
X0143878Y0208313D01*
X0143878Y0201565D01*
X0141674Y0201565D01*
X0141294Y0201667D01*
X0140954Y0201863D01*
X0140676Y0202141D01*
X0140480Y0202481D01*
X0140378Y0202861D01*
X0140378Y0208313D01*
X0143878Y0208313D01*
X0143878Y0209297D01*
X0140378Y0209297D01*
X0140378Y0214750D01*
X0140480Y0215129D01*
X0140676Y0215469D01*
X0140954Y0215747D01*
X0141294Y0215944D01*
X0141674Y0216045D01*
X0143878Y0216045D01*
X0143878Y0209297D01*
X0144862Y0209297D01*
X0144862Y0216045D01*
X0147067Y0216045D01*
X0147446Y0215944D01*
X0147786Y0215747D01*
X0148064Y0215469D01*
X0148261Y0215129D01*
X0148362Y0214750D01*
X0148362Y0209297D01*
X0144862Y0209297D01*
X0144862Y0208313D01*
X0144862Y0209297D01*
X0143878Y0209297D01*
X0143878Y0216045D01*
X0141674Y0216045D01*
X0141294Y0215944D01*
X0140954Y0215747D01*
X0140676Y0215469D01*
X0140480Y0215129D01*
X0143878Y0214861D02*
X0144862Y0214861D01*
X0143878Y0214861D01*
X0143878Y0213878D02*
X0144862Y0213878D01*
X0143878Y0213878D01*
X0143878Y0212896D02*
X0144862Y0212896D01*
X0143878Y0212896D01*
X0143878Y0211913D02*
X0144862Y0211913D01*
X0143878Y0211913D01*
X0143878Y0210930D02*
X0144862Y0210930D01*
X0143878Y0210930D01*
X0143878Y0209947D02*
X0144862Y0209947D01*
X0143878Y0209947D01*
X0144862Y0209297D02*
X0144862Y0216045D01*
X0147067Y0216045D01*
X0147446Y0215944D01*
X0147786Y0215747D01*
X0148064Y0215469D01*
X0148261Y0215129D01*
X0148362Y0214750D01*
X0148362Y0209297D01*
X0144862Y0209297D01*
X0144862Y0208965D02*
X0187586Y0208965D01*
X0187465Y0209947D02*
X0148362Y0209947D01*
X0155984Y0209947D01*
X0155984Y0208965D02*
X0144862Y0208965D01*
X0144862Y0207982D02*
X0143878Y0207982D01*
X0144862Y0207982D01*
X0144862Y0206999D02*
X0143878Y0206999D01*
X0144862Y0206999D01*
X0144862Y0206016D02*
X0143878Y0206016D01*
X0144862Y0206016D01*
X0144862Y0205034D02*
X0143878Y0205034D01*
X0144862Y0205034D01*
X0144862Y0204051D02*
X0143878Y0204051D01*
X0144862Y0204051D01*
X0144862Y0203068D02*
X0143878Y0203068D01*
X0144862Y0203068D01*
X0144862Y0202085D02*
X0143878Y0202085D01*
X0144862Y0202085D01*
X0148008Y0202085D02*
X0190922Y0202085D01*
X0189939Y0203068D02*
X0148362Y0203068D01*
X0153485Y0203068D01*
X0154646Y0204051D02*
X0148362Y0204051D01*
X0188956Y0204051D01*
X0188646Y0205034D02*
X0148362Y0205034D01*
X0155808Y0205034D01*
X0155984Y0206016D02*
X0148362Y0206016D01*
X0188646Y0206016D01*
X0188646Y0206999D02*
X0148362Y0206999D01*
X0155984Y0206999D01*
X0155984Y0207982D02*
X0148362Y0207982D01*
X0188568Y0207982D01*
X0189449Y0209907D02*
X0190630Y0208726D01*
X0190630Y0205183D01*
X0191772Y0204041D01*
X0201211Y0204041D01*
X0205945Y0204041D01*
X0209134Y0200852D01*
X0212039Y0200852D01*
X0212843Y0200049D01*
X0215055Y0200049D01*
X0216614Y0198490D01*
X0225276Y0198490D01*
X0225732Y0198033D01*
X0228579Y0198033D01*
X0248713Y0177900D01*
X0249291Y0177900D01*
X0258346Y0177900D01*
X0249685Y0177900D02*
X0249291Y0177900D01*
X0249685Y0177506D01*
X0249685Y0168963D01*
X0249685Y0168569D02*
X0255374Y0162880D01*
X0255374Y0157723D01*
X0260374Y0157723D02*
X0260374Y0163667D01*
X0258228Y0165813D01*
X0231969Y0143766D02*
X0231693Y0144041D01*
X0220711Y0144041D01*
X0196921Y0129361D02*
X0183707Y0129361D01*
X0183707Y0128378D02*
X0196929Y0128378D01*
X0197008Y0119533D02*
X0183707Y0119533D01*
X0183707Y0118550D02*
X0197016Y0118550D01*
X0220711Y0124041D02*
X0231929Y0124041D01*
X0231969Y0124081D01*
X0255374Y0120123D02*
X0255374Y0113234D01*
X0255197Y0113057D01*
X0260315Y0113057D02*
X0260374Y0113116D01*
X0260374Y0120123D01*
X0265374Y0120123D02*
X0265374Y0113116D01*
X0265433Y0113057D01*
X0290236Y0113451D02*
X0290374Y0113589D01*
X0290374Y0120123D01*
X0305984Y0119371D02*
X0305984Y0179986D01*
X0320157Y0194159D01*
X0347323Y0194159D01*
X0367453Y0214289D01*
X0386621Y0214289D01*
X0397274Y0224943D01*
X0428350Y0224943D01*
X0430000Y0223293D01*
X0439843Y0223293D01*
X0446929Y0218963D02*
X0431525Y0218963D01*
X0427810Y0222678D01*
X0410143Y0222678D01*
X0409862Y0222959D01*
X0398096Y0222959D01*
X0387443Y0212305D01*
X0369886Y0212305D01*
X0348110Y0190529D01*
X0322226Y0190529D01*
X0309528Y0177830D01*
X0309528Y0115419D01*
X0238661Y0044553D01*
X0222894Y0044553D01*
X0222598Y0044258D01*
X0216951Y0037964D02*
X0183707Y0037964D01*
X0183707Y0036981D02*
X0215969Y0036981D01*
X0215457Y0035998D02*
X0183707Y0035998D01*
X0183707Y0035015D02*
X0215106Y0035015D01*
X0215106Y0034033D02*
X0183707Y0034033D01*
X0183707Y0033050D02*
X0215237Y0033050D01*
X0215644Y0032067D02*
X0183707Y0032067D01*
X0183707Y0031084D02*
X0216419Y0031084D01*
X0217894Y0030102D02*
X0183707Y0030102D01*
X0183707Y0029119D02*
X0247717Y0029119D01*
X0229597Y0016343D02*
X0328819Y0016343D01*
X0328819Y0017326D02*
X0228883Y0017326D01*
X0227558Y0018308D02*
X0277226Y0018308D01*
X0278744Y0019596D02*
X0275909Y0022431D01*
X0275909Y0032502D01*
X0274488Y0033923D01*
X0274488Y0073293D01*
X0310709Y0109514D01*
X0311102Y0109120D01*
X0377638Y0109120D01*
X0380787Y0108333D01*
X0398504Y0108333D01*
X0400457Y0110285D01*
X0415861Y0110285D01*
X0478057Y0172481D01*
X0502378Y0172481D01*
X0514920Y0185022D01*
X0514920Y0206203D01*
X0517520Y0206203D02*
X0517520Y0194947D01*
X0516904Y0194331D01*
X0516904Y0184201D01*
X0503200Y0170497D01*
X0498578Y0170497D01*
X0498110Y0170029D01*
X0488153Y0170029D01*
X0480787Y0162663D01*
X0480787Y0162115D01*
X0469919Y0151246D01*
X0459628Y0151246D01*
X0416683Y0108301D01*
X0403197Y0108301D01*
X0400634Y0105738D01*
X0391827Y0105738D01*
X0389843Y0103754D01*
X0314004Y0103754D01*
X0280748Y0070498D01*
X0280748Y0024435D01*
X0282752Y0019596D02*
X0278744Y0019596D01*
X0282752Y0019596D02*
X0287591Y0024435D01*
X0294528Y0024435D01*
X0305197Y0024205D02*
X0314807Y0024205D01*
X0314807Y0023473D02*
X0315544Y0021694D01*
X0316905Y0020333D01*
X0318683Y0019596D01*
X0320608Y0019596D01*
X0322387Y0020333D01*
X0323748Y0021694D01*
X0324484Y0023473D01*
X0324484Y0025397D01*
X0323748Y0027176D01*
X0322387Y0028537D01*
X0320608Y0029274D01*
X0318683Y0029274D01*
X0316905Y0028537D01*
X0315544Y0027176D01*
X0314807Y0025397D01*
X0314807Y0023473D01*
X0314911Y0023222D02*
X0305197Y0023222D01*
X0305197Y0022240D02*
X0315318Y0022240D01*
X0315981Y0021257D02*
X0305197Y0021257D01*
X0305197Y0020274D02*
X0317047Y0020274D01*
X0322244Y0020274D02*
X0328819Y0020274D01*
X0328819Y0019291D02*
X0305197Y0019291D01*
X0305197Y0025188D02*
X0314807Y0025188D01*
X0315127Y0026171D02*
X0305197Y0026171D01*
X0305197Y0027153D02*
X0315534Y0027153D01*
X0316504Y0028136D02*
X0305197Y0028136D01*
X0305197Y0029119D02*
X0318310Y0029119D01*
X0320982Y0029119D02*
X0328819Y0029119D01*
X0328819Y0030102D02*
X0305197Y0030102D01*
X0305197Y0031084D02*
X0328819Y0031084D01*
X0328819Y0032067D02*
X0305197Y0032067D01*
X0305197Y0033050D02*
X0328819Y0033050D01*
X0328819Y0034033D02*
X0305197Y0034033D01*
X0305197Y0035015D02*
X0328819Y0035015D01*
X0328819Y0035998D02*
X0305197Y0035998D01*
X0305197Y0036981D02*
X0328819Y0036981D01*
X0328819Y0037964D02*
X0305197Y0037964D01*
X0305197Y0038947D02*
X0328819Y0038947D01*
X0328819Y0039929D02*
X0305197Y0039929D01*
X0305197Y0040912D02*
X0328819Y0040912D01*
X0328819Y0041895D02*
X0305197Y0041895D01*
X0305197Y0042878D02*
X0328819Y0042878D01*
X0328819Y0043860D02*
X0305197Y0043860D01*
X0305197Y0044843D02*
X0328819Y0044843D01*
X0328819Y0045826D02*
X0305197Y0045826D01*
X0305197Y0046809D02*
X0328819Y0046809D01*
X0328819Y0047791D02*
X0305197Y0047791D01*
X0305197Y0048774D02*
X0328819Y0048774D01*
X0328819Y0049757D02*
X0305197Y0049757D01*
X0305197Y0050740D02*
X0328819Y0050740D01*
X0329689Y0051722D02*
X0305197Y0051722D01*
X0305197Y0052705D02*
X0330672Y0052705D01*
X0331655Y0053688D02*
X0305197Y0053688D01*
X0305197Y0054671D02*
X0332637Y0054671D01*
X0333620Y0055653D02*
X0305197Y0055653D01*
X0305197Y0056636D02*
X0334603Y0056636D01*
X0335586Y0057619D02*
X0305197Y0057619D01*
X0305197Y0058602D02*
X0336568Y0058602D01*
X0337551Y0059585D02*
X0305197Y0059585D01*
X0305197Y0060567D02*
X0338534Y0060567D01*
X0339517Y0061550D02*
X0305197Y0061550D01*
X0305197Y0062533D02*
X0340499Y0062533D01*
X0341482Y0063516D02*
X0305197Y0063516D01*
X0305197Y0064498D02*
X0342465Y0064498D01*
X0365823Y0046861D02*
X0387505Y0068544D01*
X0387505Y0072087D01*
X0394386Y0078967D01*
X0394386Y0095338D01*
X0399279Y0100230D01*
X0401488Y0100230D01*
X0405591Y0104333D01*
X0418327Y0104333D01*
X0460791Y0146797D01*
X0471082Y0146797D01*
X0488020Y0163736D01*
X0490345Y0166060D01*
X0504376Y0166060D01*
X0520873Y0182557D01*
X0520873Y0192412D01*
X0522620Y0194159D01*
X0522620Y0206203D01*
X0520120Y0206203D02*
X0520120Y0194553D01*
X0518888Y0193322D01*
X0518888Y0183379D01*
X0517726Y0182216D01*
X0503554Y0168045D01*
X0489523Y0168045D01*
X0486036Y0164558D01*
X0486036Y0164557D01*
X0470260Y0148781D01*
X0464646Y0148781D01*
X0464543Y0148884D01*
X0460072Y0148884D01*
X0417505Y0106317D01*
X0404019Y0106317D01*
X0400104Y0102402D01*
X0396510Y0102402D01*
X0392402Y0098293D01*
X0392402Y0079789D01*
X0385118Y0072506D01*
X0385118Y0068963D01*
X0360984Y0044829D01*
X0360984Y0024435D01*
X0358980Y0019596D02*
X0354141Y0024435D01*
X0347205Y0024435D01*
X0358980Y0019596D02*
X0362988Y0019596D01*
X0365823Y0022431D01*
X0365823Y0046861D01*
X0378425Y0047309D02*
X0378425Y0025325D01*
X0378331Y0025230D01*
X0378331Y0022411D01*
X0371339Y0015419D01*
X0407685Y0032566D02*
X0430753Y0009498D01*
X0472485Y0009498D01*
X0472879Y0009104D01*
X0602425Y0009104D01*
X0629606Y0036285D01*
X0629606Y0036629D01*
X0631984Y0039007D01*
X0631984Y0051656D01*
X0636299Y0055970D01*
X0636299Y0058915D01*
X0637854Y0061896D02*
X0659567Y0061896D01*
X0631061Y0061896D01*
X0629899Y0063057D01*
X0613465Y0063057D01*
X0605984Y0070537D01*
X0581181Y0070537D01*
X0573633Y0078085D01*
X0573633Y0098049D01*
X0570436Y0101246D01*
X0562334Y0101246D01*
X0544239Y0119341D01*
X0544139Y0119341D01*
X0542976Y0120503D01*
X0542976Y0196144D01*
X0534740Y0204380D01*
X0534740Y0204380D01*
X0525535Y0213585D01*
X0508527Y0213585D01*
X0506418Y0211476D01*
X0485518Y0211476D01*
X0485518Y0211476D01*
X0479600Y0211476D01*
X0474498Y0206374D01*
X0474498Y0206374D01*
X0473504Y0205380D01*
X0462775Y0205380D01*
X0453553Y0214602D01*
X0453553Y0222918D01*
X0449544Y0226927D01*
X0396452Y0226927D01*
X0385799Y0216274D01*
X0368122Y0216274D01*
X0341417Y0242978D01*
X0340354Y0244041D01*
X0220711Y0244041D01*
X0221774Y0242978D01*
X0212843Y0240049D02*
X0307102Y0240049D01*
X0336220Y0210931D01*
X0336220Y0200931D02*
X0327559Y0200931D01*
X0314449Y0214041D01*
X0314449Y0221915D01*
X0307165Y0229199D01*
X0299291Y0229199D01*
X0293780Y0234711D01*
X0282756Y0234711D01*
X0281575Y0233530D01*
X0232059Y0233530D01*
X0228579Y0230049D01*
X0193343Y0230049D01*
X0192469Y0230923D01*
X0192469Y0236924D01*
X0184893Y0244499D01*
X0184893Y0255237D01*
X0187087Y0257430D01*
X0187087Y0263057D01*
X0188071Y0264041D01*
X0201211Y0264041D01*
X0210709Y0269356D02*
X0210709Y0242183D01*
X0212843Y0240049D01*
X0201211Y0244041D02*
X0200935Y0243766D01*
X0189843Y0243766D01*
X0179197Y0242550D02*
X0179197Y0263888D01*
X0185512Y0270203D01*
X0185512Y0279986D01*
X0189567Y0284041D01*
X0201211Y0284041D01*
X0201250Y0274081D02*
X0202047Y0274081D01*
X0205984Y0274081D01*
X0210709Y0269356D01*
X0205984Y0274081D02*
X0202047Y0274081D01*
X0201250Y0274081D02*
X0201211Y0274041D01*
X0220711Y0264041D02*
X0232559Y0264041D01*
X0232756Y0264238D01*
X0220711Y0254041D02*
X0334331Y0254041D01*
X0370114Y0218258D01*
X0384977Y0218258D01*
X0395630Y0228911D01*
X0450366Y0228911D01*
X0455538Y0223740D01*
X0455538Y0215424D01*
X0462604Y0208358D01*
X0473676Y0208358D01*
X0478778Y0213461D01*
X0505596Y0213461D01*
X0507705Y0215569D01*
X0526357Y0215569D01*
X0535562Y0206364D01*
X0537087Y0206364D01*
X0544961Y0198490D01*
X0544961Y0121325D01*
X0545061Y0121325D01*
X0561350Y0105037D01*
X0561350Y0105036D01*
X0563156Y0103230D01*
X0571258Y0103230D01*
X0575617Y0098871D01*
X0575617Y0078907D01*
X0582003Y0072522D01*
X0606806Y0072522D01*
X0614286Y0065041D01*
X0630721Y0065041D01*
X0631353Y0064410D01*
X0652613Y0064410D01*
X0654409Y0066207D01*
X0660531Y0066207D01*
X0659567Y0066817D01*
X0642205Y0070144D02*
X0642205Y0076049D01*
X0637087Y0081167D01*
X0633937Y0081167D01*
X0630000Y0085104D01*
X0630000Y0111876D01*
X0633150Y0115026D01*
X0651260Y0115026D01*
X0654409Y0118175D01*
X0654409Y0130380D01*
X0649291Y0135498D01*
X0649291Y0161482D01*
X0654803Y0166994D01*
X0654803Y0200852D01*
X0649685Y0205970D01*
X0649291Y0206364D01*
X0649291Y0215419D01*
X0655787Y0221915D01*
X0655787Y0247506D01*
X0663465Y0255183D01*
X0669370Y0255183D01*
X0674094Y0259907D01*
X0674094Y0263844D01*
X0673139Y0264800D01*
X0673139Y0265867D01*
X0670157Y0268848D01*
X0670157Y0301640D01*
X0659134Y0312663D01*
X0646142Y0312663D01*
X0644961Y0313844D01*
X0615827Y0313844D01*
X0615039Y0313057D01*
X0611496Y0313057D01*
X0609134Y0310695D01*
X0608504Y0310380D01*
X0608189Y0310065D01*
X0608189Y0306849D01*
X0608189Y0303372D01*
X0606654Y0296325D02*
X0606850Y0296128D01*
X0615039Y0296128D01*
X0613346Y0285498D02*
X0611362Y0283514D01*
X0611087Y0283514D01*
X0607559Y0279986D01*
X0603907Y0277389D02*
X0603907Y0284011D01*
X0595079Y0292840D01*
X0576601Y0292840D01*
X0571144Y0298296D01*
X0571001Y0298439D01*
X0554803Y0298439D01*
X0559134Y0298439D01*
X0558346Y0298439D02*
X0571001Y0298439D01*
X0571144Y0298296D01*
X0570180Y0296455D02*
X0554684Y0296455D01*
X0551058Y0292829D01*
X0514996Y0292829D01*
X0513603Y0294222D01*
X0500079Y0294222D01*
X0456378Y0294222D01*
X0413232Y0294222D01*
X0399114Y0280104D01*
X0396457Y0280104D01*
X0406457Y0280104D02*
X0406457Y0280852D01*
X0413858Y0288254D01*
X0420895Y0288254D01*
X0422485Y0289844D01*
X0467267Y0289844D01*
X0469660Y0292238D01*
X0512781Y0292238D01*
X0514174Y0290844D01*
X0551880Y0290844D01*
X0555506Y0294470D01*
X0569358Y0294470D01*
X0574957Y0288871D01*
X0580394Y0288871D01*
X0592197Y0288871D01*
X0597945Y0283123D01*
X0597945Y0282952D01*
X0598942Y0281955D01*
X0595961Y0282301D02*
X0591375Y0286887D01*
X0574135Y0286887D01*
X0568536Y0292486D01*
X0556328Y0292486D01*
X0552702Y0288860D01*
X0513353Y0288860D01*
X0511959Y0290254D01*
X0470482Y0290254D01*
X0468088Y0287860D01*
X0424213Y0287860D01*
X0416457Y0280104D01*
X0426457Y0280104D02*
X0426457Y0242978D01*
X0433602Y0235833D01*
X0472995Y0235833D01*
X0488373Y0220455D01*
X0502802Y0220455D01*
X0504838Y0222490D01*
X0517042Y0222490D01*
X0518718Y0224166D01*
X0521254Y0224166D01*
X0521759Y0224671D01*
X0521759Y0224727D01*
X0522620Y0225587D01*
X0522620Y0229203D01*
X0520120Y0229203D02*
X0520120Y0239550D01*
X0525669Y0245100D01*
X0518976Y0247703D02*
X0514920Y0243646D01*
X0514920Y0229203D01*
X0517402Y0229085D02*
X0517520Y0229203D01*
X0517402Y0229085D02*
X0517402Y0225656D01*
X0516220Y0224474D01*
X0504016Y0224474D01*
X0501980Y0222439D01*
X0489195Y0222439D01*
X0473817Y0237817D01*
X0434424Y0237817D01*
X0429213Y0243029D01*
X0429213Y0261482D01*
X0436457Y0268726D01*
X0436457Y0280104D01*
X0449685Y0296207D02*
X0412410Y0296207D01*
X0408001Y0291797D01*
X0397323Y0291797D01*
X0386457Y0280931D01*
X0386457Y0280104D01*
X0371614Y0280104D02*
X0410709Y0241010D01*
X0416614Y0241010D01*
X0419764Y0244159D01*
X0421339Y0244159D01*
X0421732Y0237860D02*
X0402701Y0237860D01*
X0360457Y0280104D01*
X0370457Y0280104D02*
X0371614Y0280104D01*
X0354803Y0295734D02*
X0354409Y0296128D01*
X0344961Y0296128D01*
X0342717Y0298372D01*
X0342717Y0308982D01*
X0354409Y0309514D02*
X0358346Y0309514D01*
X0367992Y0299868D01*
X0520813Y0299868D01*
X0521435Y0299246D01*
X0533687Y0299246D01*
X0535159Y0297774D01*
X0547888Y0297774D01*
X0556005Y0305891D01*
X0567029Y0305891D01*
X0570995Y0309857D01*
X0575210Y0309857D01*
X0585497Y0320144D01*
X0585497Y0328805D01*
X0604895Y0328805D01*
X0618189Y0342099D01*
X0633019Y0342099D01*
X0634488Y0343569D01*
X0627638Y0349278D02*
X0631378Y0353018D01*
X0636142Y0353018D01*
X0642835Y0353018D02*
X0644488Y0351364D01*
X0644488Y0343569D01*
X0651969Y0336089D01*
X0652835Y0336089D01*
X0658346Y0337073D02*
X0652441Y0342978D01*
X0652441Y0344159D01*
X0648299Y0348301D01*
X0648299Y0353797D01*
X0645618Y0356478D01*
X0642878Y0356478D01*
X0642205Y0357152D01*
X0588677Y0357152D01*
X0581422Y0349896D01*
X0579553Y0349896D01*
X0577806Y0348150D01*
X0577806Y0346281D01*
X0577260Y0345734D01*
X0577260Y0322951D01*
X0577300Y0322181D01*
X0577260Y0322137D01*
X0577260Y0318963D01*
X0575291Y0316994D01*
X0575291Y0316960D01*
X0566207Y0307875D01*
X0555183Y0307875D01*
X0547066Y0299758D01*
X0535981Y0299758D01*
X0534509Y0301230D01*
X0522257Y0301230D01*
X0516540Y0306947D01*
X0503417Y0306947D01*
X0502441Y0307923D01*
X0502441Y0313844D01*
X0498504Y0317781D01*
X0476850Y0317781D01*
X0491024Y0308982D02*
X0439803Y0308982D01*
X0434469Y0308982D01*
X0430394Y0313057D01*
X0430394Y0318844D01*
X0422461Y0326778D01*
X0391299Y0326778D01*
X0390866Y0327211D01*
X0387913Y0327585D01*
X0385118Y0330380D01*
X0367795Y0330380D01*
X0354409Y0318569D02*
X0354409Y0309514D01*
X0316220Y0315813D02*
X0311102Y0315813D01*
X0303228Y0323687D01*
X0292559Y0323687D01*
X0290551Y0325695D01*
X0221680Y0315380D02*
X0221680Y0308778D01*
X0221732Y0308726D01*
X0163071Y0269750D02*
X0163031Y0269711D01*
X0163031Y0226430D01*
X0163031Y0218030D02*
X0163071Y0217991D01*
X0163071Y0213057D01*
X0165824Y0211913D02*
X0187465Y0211913D01*
X0187465Y0212896D02*
X0166052Y0212896D01*
X0165957Y0213878D02*
X0187465Y0213878D01*
X0187465Y0214861D02*
X0165483Y0214861D01*
X0167305Y0215844D02*
X0187465Y0215844D01*
X0187465Y0216827D02*
X0167374Y0216827D01*
X0165160Y0210930D02*
X0187465Y0210930D01*
X0189449Y0209907D02*
X0189449Y0232298D01*
X0179197Y0242550D01*
X0187874Y0254002D02*
X0201171Y0254002D01*
X0201211Y0254041D01*
X0220711Y0224041D02*
X0231535Y0224041D01*
X0231575Y0224081D01*
X0245129Y0210370D02*
X0245191Y0210432D01*
X0245129Y0210370D02*
X0245129Y0197250D01*
X0253228Y0197250D02*
X0253228Y0210432D01*
X0253228Y0210432D01*
X0261046Y0210309D02*
X0261169Y0210432D01*
X0261046Y0210309D02*
X0261046Y0197250D01*
X0269089Y0197250D02*
X0269089Y0210248D01*
X0269273Y0210432D01*
X0277132Y0210186D02*
X0277377Y0210432D01*
X0277132Y0210186D02*
X0277132Y0197250D01*
X0285174Y0197250D02*
X0285174Y0210125D01*
X0285481Y0210432D01*
X0293217Y0210063D02*
X0293586Y0210432D01*
X0293217Y0210063D02*
X0293217Y0197250D01*
X0301260Y0197250D02*
X0301260Y0209961D01*
X0301660Y0210361D01*
X0341326Y0185104D02*
X0354862Y0185104D01*
X0361555Y0185104D02*
X0361555Y0185104D01*
X0371339Y0185104D01*
X0373996Y0182447D01*
X0381003Y0182447D01*
X0354862Y0169244D02*
X0341326Y0169244D01*
X0341326Y0161314D02*
X0354862Y0161314D01*
X0354862Y0153383D02*
X0341326Y0153383D01*
X0341326Y0145453D02*
X0354862Y0145453D01*
X0354862Y0137523D02*
X0341326Y0137523D01*
X0341326Y0129593D02*
X0354862Y0129593D01*
X0381003Y0152447D02*
X0387461Y0152447D01*
X0389055Y0150852D01*
X0389055Y0139474D01*
X0396102Y0132427D01*
X0396102Y0126876D01*
X0398504Y0124474D01*
X0427244Y0124474D01*
X0481969Y0179199D01*
X0481969Y0199671D01*
X0483543Y0201246D01*
X0489843Y0201246D01*
X0494173Y0205577D01*
X0494173Y0208333D01*
X0487480Y0208495D02*
X0479984Y0200999D01*
X0479984Y0180021D01*
X0430343Y0130380D01*
X0427244Y0130380D01*
X0415433Y0142191D01*
X0414252Y0142191D01*
X0411102Y0145341D01*
X0402362Y0145341D01*
X0396535Y0139514D01*
X0396220Y0139356D02*
X0392205Y0143372D01*
X0392205Y0153116D01*
X0387874Y0157447D01*
X0381003Y0157447D01*
X0396220Y0139356D02*
X0396220Y0139199D01*
X0402913Y0139199D02*
X0408504Y0139199D01*
X0409134Y0139829D01*
X0402913Y0139199D02*
X0402913Y0139041D01*
X0402795Y0132427D02*
X0402795Y0131955D01*
X0435906Y0110686D02*
X0451264Y0126045D01*
X0460260Y0126045D01*
X0460674Y0126459D01*
X0478066Y0126459D01*
X0490252Y0114273D01*
X0490252Y0096309D01*
X0496457Y0090104D01*
X0491265Y0089588D02*
X0488268Y0092585D01*
X0488268Y0113451D01*
X0477244Y0124474D01*
X0461496Y0124474D01*
X0452618Y0115596D01*
X0443621Y0115596D01*
X0437890Y0109864D01*
X0437890Y0101605D01*
X0436457Y0100172D01*
X0436457Y0090104D01*
X0441024Y0083530D02*
X0441024Y0079986D01*
X0425472Y0064435D01*
X0425472Y0061128D01*
X0421831Y0054411D02*
X0422354Y0053888D01*
X0428591Y0053888D01*
X0429114Y0054411D01*
X0440764Y0054411D01*
X0476457Y0090104D01*
X0480984Y0092920D02*
X0481649Y0092255D01*
X0481649Y0078337D01*
X0490748Y0069238D01*
X0490748Y0061128D01*
X0490630Y0061246D01*
X0485921Y0053624D02*
X0512677Y0053624D01*
X0536299Y0030002D01*
X0543604Y0030002D01*
X0544290Y0029316D01*
X0555524Y0029316D01*
X0559956Y0024884D01*
X0576816Y0024884D01*
X0580753Y0028821D01*
X0584150Y0028821D01*
X0611496Y0056167D01*
X0611496Y0059514D01*
X0611890Y0059907D01*
X0616614Y0059907D02*
X0616614Y0055183D01*
X0588268Y0026837D01*
X0581575Y0026837D01*
X0577638Y0022900D01*
X0559134Y0022900D01*
X0555197Y0026837D01*
X0533937Y0026837D01*
X0509134Y0051640D01*
X0496535Y0051640D01*
X0491024Y0046128D01*
X0491024Y0043175D01*
X0490748Y0042900D01*
X0479606Y0043569D02*
X0479606Y0047309D01*
X0485921Y0053624D01*
X0479606Y0043569D02*
X0478937Y0042900D01*
X0467008Y0034711D02*
X0459528Y0027230D01*
X0418976Y0027230D01*
X0413468Y0032738D01*
X0413465Y0032738D01*
X0413465Y0042703D01*
X0413661Y0042900D01*
X0407685Y0047423D02*
X0407685Y0032566D01*
X0409669Y0033727D02*
X0409669Y0049479D01*
X0407543Y0051605D01*
X0407543Y0078446D01*
X0408740Y0079643D01*
X0408740Y0080380D01*
X0410315Y0081955D01*
X0419370Y0081955D01*
X0426457Y0089041D01*
X0426457Y0090104D01*
X0417677Y0090104D02*
X0416457Y0090104D01*
X0415315Y0090104D01*
X0400079Y0074868D01*
X0400079Y0069715D01*
X0397858Y0067494D01*
X0397858Y0054762D01*
X0398732Y0053888D01*
X0402161Y0053888D01*
X0404803Y0051246D01*
X0404803Y0050305D01*
X0407685Y0047423D01*
X0411890Y0052427D02*
X0417008Y0052427D01*
X0419764Y0049671D01*
X0419764Y0032742D01*
X0419370Y0032742D01*
X0419370Y0024027D02*
X0409669Y0033727D01*
X0401850Y0042900D02*
X0395874Y0048876D01*
X0395874Y0073470D01*
X0400898Y0078493D01*
X0400898Y0091888D01*
X0406348Y0097339D01*
X0410885Y0097339D01*
X0410969Y0097423D01*
X0418163Y0097423D01*
X0426333Y0105593D01*
X0426333Y0106726D01*
X0462435Y0142829D01*
X0479063Y0142829D01*
X0494961Y0158726D01*
X0509921Y0158726D01*
X0526850Y0175656D01*
X0526850Y0180774D01*
X0531181Y0185104D01*
X0537480Y0185104D01*
X0537874Y0185498D01*
X0533543Y0179199D02*
X0533543Y0178018D01*
X0509134Y0153608D01*
X0494961Y0153608D01*
X0494346Y0154222D01*
X0480968Y0140844D01*
X0463257Y0140844D01*
X0428317Y0105904D01*
X0428317Y0104771D01*
X0418985Y0095439D01*
X0411791Y0095439D01*
X0406457Y0090104D01*
X0398913Y0092710D02*
X0398913Y0079315D01*
X0393890Y0074291D01*
X0393890Y0062774D01*
X0378425Y0047309D01*
X0375337Y0065481D02*
X0305197Y0065481D01*
X0305197Y0066464D02*
X0376320Y0066464D01*
X0377303Y0067447D02*
X0305197Y0067447D01*
X0305197Y0068429D02*
X0378286Y0068429D01*
X0379268Y0069412D02*
X0305197Y0069412D01*
X0305197Y0070395D02*
X0380251Y0070395D01*
X0381234Y0071378D02*
X0305197Y0071378D01*
X0305197Y0072360D02*
X0382217Y0072360D01*
X0383149Y0073343D02*
X0305197Y0073343D01*
X0305197Y0074326D02*
X0384132Y0074326D01*
X0385115Y0075309D02*
X0305197Y0075309D01*
X0305197Y0076292D02*
X0386098Y0076292D01*
X0387080Y0077274D02*
X0305197Y0077274D01*
X0305197Y0078257D02*
X0388063Y0078257D01*
X0389046Y0079240D02*
X0305197Y0079240D01*
X0305197Y0080223D02*
X0390029Y0080223D01*
X0390417Y0081205D02*
X0305197Y0081205D01*
X0305197Y0082188D02*
X0390417Y0082188D01*
X0390417Y0083171D02*
X0305197Y0083171D01*
X0305197Y0084154D02*
X0390417Y0084154D01*
X0390417Y0085136D02*
X0387969Y0085136D01*
X0386949Y0085136D02*
X0385965Y0085136D01*
X0385965Y0086119D02*
X0386949Y0086119D01*
X0386949Y0087102D02*
X0385965Y0087102D01*
X0385965Y0088085D02*
X0386949Y0088085D01*
X0386949Y0089067D02*
X0385965Y0089067D01*
X0385965Y0091033D02*
X0386949Y0091033D01*
X0386949Y0092016D02*
X0385965Y0092016D01*
X0385965Y0092998D02*
X0386949Y0092998D01*
X0386949Y0093981D02*
X0385965Y0093981D01*
X0385965Y0094964D02*
X0386949Y0094964D01*
X0388302Y0094964D02*
X0390417Y0094964D01*
X0390417Y0093981D02*
X0389923Y0093981D01*
X0390417Y0095947D02*
X0313677Y0095947D01*
X0314660Y0096930D02*
X0390417Y0096930D01*
X0390417Y0097912D02*
X0315643Y0097912D01*
X0316625Y0098895D02*
X0390417Y0098895D01*
X0391180Y0099878D02*
X0317608Y0099878D01*
X0318591Y0100861D02*
X0390228Y0100861D01*
X0384611Y0094964D02*
X0378292Y0094964D01*
X0379923Y0093981D02*
X0382991Y0093981D01*
X0382142Y0092998D02*
X0380878Y0092998D01*
X0381285Y0092016D02*
X0381618Y0092016D01*
X0381658Y0088085D02*
X0381240Y0088085D01*
X0380797Y0087102D02*
X0382220Y0087102D01*
X0383108Y0086119D02*
X0379814Y0086119D01*
X0378031Y0085136D02*
X0384944Y0085136D01*
X0389805Y0086119D02*
X0390417Y0086119D01*
X0398913Y0092710D02*
X0405611Y0099408D01*
X0410524Y0099408D01*
X0413465Y0102348D01*
X0419149Y0102348D01*
X0461613Y0144813D01*
X0471904Y0144813D01*
X0491167Y0164076D01*
X0505198Y0164076D01*
X0525220Y0184098D01*
X0525220Y0206203D01*
X0525276Y0206259D01*
X0525276Y0210301D01*
X0524094Y0211482D01*
X0511496Y0211482D01*
X0509820Y0209806D01*
X0509820Y0206203D01*
X0521012Y0219030D02*
X0525220Y0223237D01*
X0525220Y0223293D01*
X0525220Y0223293D01*
X0553622Y0223293D01*
X0564646Y0234317D01*
X0576457Y0230104D02*
X0551654Y0211600D01*
X0551654Y0119356D01*
X0557165Y0113844D01*
X0560709Y0113844D01*
X0566614Y0107939D01*
X0569595Y0108895D02*
X0575669Y0102821D01*
X0589001Y0102821D01*
X0597248Y0094574D01*
X0597248Y0093372D01*
X0597323Y0093297D01*
X0597323Y0077624D01*
X0600441Y0074506D01*
X0609038Y0074506D01*
X0612448Y0071096D01*
X0616614Y0072112D02*
X0612236Y0076490D01*
X0606331Y0076490D01*
X0604803Y0078018D01*
X0604803Y0083186D01*
X0601482Y0086507D01*
X0601482Y0095953D01*
X0598734Y0098701D01*
X0598734Y0098701D01*
X0596756Y0100679D01*
X0596756Y0168395D01*
X0598504Y0170144D01*
X0598504Y0180774D01*
X0594567Y0179593D02*
X0594567Y0100062D01*
X0597912Y0096717D01*
X0599307Y0095321D01*
X0599307Y0085876D01*
X0600866Y0084317D01*
X0600866Y0078411D01*
X0616614Y0072112D02*
X0616614Y0068022D01*
X0605984Y0059907D02*
X0605591Y0059907D01*
X0596012Y0050329D01*
X0575276Y0050329D01*
X0573701Y0048754D01*
X0573701Y0044947D01*
X0571654Y0042900D01*
X0567441Y0042900D01*
X0561496Y0048096D02*
X0561496Y0037467D01*
X0558740Y0034711D01*
X0546142Y0034711D01*
X0544343Y0032294D02*
X0544907Y0031730D01*
X0565658Y0031730D01*
X0566614Y0030774D01*
X0573307Y0030774D01*
X0573307Y0031167D01*
X0579252Y0042900D02*
X0584803Y0042900D01*
X0585118Y0042585D01*
X0592853Y0052313D02*
X0572595Y0052313D01*
X0570741Y0050459D01*
X0563858Y0050459D01*
X0561496Y0048096D01*
X0562813Y0052957D02*
X0555630Y0045774D01*
X0555630Y0042900D01*
X0562813Y0052957D02*
X0569628Y0052957D01*
X0571433Y0054762D01*
X0571433Y0087738D01*
X0571649Y0087954D01*
X0571649Y0092255D01*
X0569370Y0094534D01*
X0569370Y0098096D01*
X0558683Y0094943D02*
X0558683Y0102091D01*
X0543417Y0117356D01*
X0543317Y0117356D01*
X0512183Y0148490D01*
X0496535Y0148490D01*
X0487874Y0142978D02*
X0497323Y0133530D01*
X0497323Y0111089D01*
X0486283Y0100474D02*
X0484724Y0102033D01*
X0478409Y0102033D01*
X0474882Y0098506D01*
X0457515Y0098506D01*
X0449114Y0090104D01*
X0446457Y0090104D01*
X0456457Y0090104D02*
X0456457Y0090301D01*
X0462677Y0096522D01*
X0478425Y0096522D01*
X0480984Y0093963D01*
X0480984Y0092920D01*
X0484299Y0095766D02*
X0484299Y0089307D01*
X0489055Y0084551D01*
X0489055Y0078018D01*
X0502559Y0064514D01*
X0502559Y0061128D01*
X0517811Y0075640D02*
X0523252Y0070198D01*
X0523252Y0053160D01*
X0544118Y0032294D01*
X0544343Y0032294D01*
X0514252Y0034711D02*
X0467008Y0034711D01*
X0502559Y0042900D02*
X0506850Y0042900D01*
X0509134Y0040616D01*
X0473701Y0011089D02*
X0473307Y0011482D01*
X0431575Y0011482D01*
X0419370Y0023687D01*
X0419370Y0024027D01*
X0425472Y0042900D02*
X0425472Y0045931D01*
X0430787Y0051246D01*
X0421831Y0054411D02*
X0416992Y0054411D01*
X0413661Y0057742D01*
X0413661Y0061128D01*
X0409528Y0054789D02*
X0411890Y0052427D01*
X0409528Y0054789D02*
X0409528Y0074081D01*
X0413071Y0077624D01*
X0416614Y0077624D01*
X0434331Y0100852D02*
X0435906Y0102427D01*
X0435906Y0110686D01*
X0482756Y0097703D02*
X0483150Y0098096D01*
X0482756Y0097703D02*
X0482756Y0097309D01*
X0484299Y0095766D01*
X0486283Y0091763D02*
X0486283Y0100474D01*
X0486283Y0091763D02*
X0488490Y0089556D01*
X0488490Y0089263D01*
X0489280Y0088473D01*
X0489280Y0087132D01*
X0500772Y0075640D01*
X0517811Y0075640D01*
X0501594Y0077624D02*
X0552441Y0077624D01*
X0556772Y0073293D01*
X0566220Y0073293D01*
X0567441Y0072073D01*
X0567441Y0061128D01*
X0578819Y0061561D02*
X0579252Y0061128D01*
X0578819Y0061561D02*
X0578819Y0067781D01*
X0575276Y0071325D01*
X0574882Y0071325D01*
X0567402Y0078018D02*
X0564646Y0078018D01*
X0561693Y0080970D01*
X0595523Y0099106D02*
X0597912Y0096717D01*
X0601654Y0107545D02*
X0609528Y0099671D01*
X0606772Y0109120D02*
X0628016Y0087876D01*
X0628016Y0084282D01*
X0636299Y0075999D01*
X0636299Y0072900D01*
X0634724Y0066994D02*
X0639055Y0066994D01*
X0642205Y0070144D01*
X0634724Y0066994D02*
X0630000Y0071719D01*
X0630000Y0072112D01*
X0630000Y0057152D02*
X0630000Y0039829D01*
X0601260Y0011089D01*
X0473701Y0011089D01*
X0501594Y0077624D02*
X0491265Y0087954D01*
X0491265Y0089588D01*
X0558740Y0120029D02*
X0558740Y0177345D01*
X0557728Y0178358D01*
X0557728Y0180827D01*
X0558756Y0181856D01*
X0558756Y0197325D01*
X0571265Y0209833D01*
X0571265Y0212255D01*
X0576457Y0217447D01*
X0576457Y0220104D01*
X0586457Y0220104D02*
X0593780Y0212781D01*
X0593780Y0189829D01*
X0598504Y0189829D02*
X0598504Y0226049D01*
X0594173Y0230380D01*
X0586732Y0230380D01*
X0586457Y0230104D01*
X0586457Y0240104D02*
X0596260Y0240104D01*
X0600866Y0235498D01*
X0600866Y0234317D01*
X0605197Y0229986D01*
X0605197Y0196822D01*
X0613836Y0188183D01*
X0622126Y0188183D01*
X0623969Y0186341D01*
X0627390Y0186341D01*
X0629510Y0184220D01*
X0629510Y0180283D01*
X0626850Y0177624D01*
X0610265Y0177624D01*
X0606756Y0174115D01*
X0606756Y0167797D01*
X0614252Y0160301D01*
X0629591Y0160301D01*
X0631559Y0158333D01*
X0631559Y0152411D01*
X0630172Y0151024D01*
X0630172Y0142807D01*
X0625635Y0138270D01*
X0616973Y0138270D01*
X0604787Y0126084D01*
X0604787Y0121703D01*
X0601654Y0118569D01*
X0601654Y0107545D01*
X0606772Y0109120D02*
X0606772Y0125262D01*
X0617795Y0136285D01*
X0626457Y0136285D01*
X0633543Y0143372D01*
X0633543Y0159155D01*
X0628041Y0164657D01*
X0612702Y0164657D01*
X0608740Y0168619D01*
X0608740Y0173293D01*
X0611087Y0175640D01*
X0627672Y0175640D01*
X0631494Y0179462D01*
X0631494Y0185042D01*
X0630787Y0185749D01*
X0630787Y0185892D01*
X0626512Y0190167D01*
X0614658Y0190167D01*
X0613783Y0191041D01*
X0613783Y0195415D01*
X0607559Y0201640D01*
X0607559Y0235892D01*
X0606378Y0237073D01*
X0606378Y0247703D01*
X0611496Y0252821D01*
X0621024Y0252821D01*
X0620630Y0252427D01*
X0626457Y0258333D02*
X0596142Y0258333D01*
X0592598Y0254789D01*
X0590630Y0254789D01*
X0586457Y0260104D02*
X0587047Y0260695D01*
X0614252Y0260695D01*
X0618189Y0264632D01*
X0621024Y0264632D01*
X0626239Y0268624D02*
X0627390Y0268624D01*
X0628264Y0267750D01*
X0628264Y0259332D01*
X0631197Y0256399D01*
X0631197Y0234679D01*
X0647307Y0218569D01*
X0647307Y0205542D01*
X0652666Y0200183D01*
X0652666Y0195100D01*
X0652819Y0194947D01*
X0652819Y0168963D01*
X0642992Y0159136D01*
X0642992Y0144159D01*
X0629606Y0132348D02*
X0624882Y0132348D01*
X0621024Y0128490D01*
X0621024Y0122270D01*
X0639252Y0122270D02*
X0639409Y0122112D01*
X0649291Y0122112D01*
X0628425Y0156758D02*
X0613465Y0156758D01*
X0607362Y0162860D01*
X0604213Y0162860D01*
X0602835Y0164238D01*
X0602835Y0174081D01*
X0604803Y0176049D01*
X0604803Y0180774D01*
X0604409Y0181167D01*
X0609528Y0184711D02*
X0611890Y0182348D01*
X0621024Y0182348D01*
X0609528Y0184711D02*
X0592205Y0184711D01*
X0590630Y0184711D01*
X0590236Y0185104D01*
X0591811Y0184711D02*
X0592205Y0184711D01*
X0593780Y0180380D02*
X0594567Y0179593D01*
X0604409Y0187860D02*
X0604409Y0192191D01*
X0601260Y0195341D01*
X0601260Y0229986D01*
X0609921Y0217781D02*
X0620945Y0228805D01*
X0625276Y0228805D01*
X0629213Y0232742D01*
X0629213Y0255577D01*
X0626457Y0258333D01*
X0639252Y0252821D02*
X0639646Y0253215D01*
X0649291Y0253215D01*
X0653622Y0257545D01*
X0653622Y0264632D01*
X0644567Y0273687D01*
X0604803Y0273687D01*
X0601923Y0276567D01*
X0601923Y0283190D01*
X0594257Y0290856D01*
X0575779Y0290856D01*
X0570180Y0296455D01*
X0580394Y0288871D02*
X0581575Y0288871D01*
X0588268Y0298096D02*
X0588189Y0298175D01*
X0588189Y0306849D01*
X0598189Y0306849D02*
X0598189Y0303136D01*
X0598504Y0302821D01*
X0598110Y0303215D01*
X0598110Y0303608D01*
X0598504Y0302821D02*
X0600079Y0301246D01*
X0600079Y0296443D01*
X0599961Y0296325D01*
X0613346Y0285498D02*
X0638268Y0285498D01*
X0642835Y0290065D01*
X0642835Y0296325D01*
X0636142Y0296325D02*
X0636142Y0304907D01*
X0634488Y0306561D01*
X0644488Y0306561D02*
X0644488Y0306443D01*
X0644488Y0306561D02*
X0644685Y0306364D01*
X0652835Y0329396D02*
X0652835Y0329593D01*
X0658346Y0335104D01*
X0658346Y0337073D01*
X0625669Y0353608D02*
X0619724Y0353608D01*
X0619724Y0353411D01*
X0613031Y0353411D02*
X0606457Y0353411D01*
X0606457Y0343832D01*
X0608189Y0342099D01*
X0604761Y0338689D02*
X0600881Y0338689D01*
X0600881Y0337707D02*
X0605497Y0337707D01*
X0605497Y0337954D02*
X0605497Y0336656D01*
X0606371Y0335782D01*
X0607559Y0335782D01*
X0607559Y0334276D01*
X0604073Y0330789D01*
X0594945Y0330789D01*
X0594567Y0331167D01*
X0591024Y0331167D01*
X0586693Y0335498D01*
X0586693Y0335809D01*
X0586793Y0335782D01*
X0588081Y0335782D01*
X0588081Y0341991D01*
X0588297Y0341991D01*
X0588297Y0335782D01*
X0589585Y0335782D01*
X0589965Y0335884D01*
X0590305Y0336080D01*
X0590583Y0336358D01*
X0590779Y0336698D01*
X0590881Y0337078D01*
X0590881Y0341992D01*
X0588297Y0341992D01*
X0588297Y0342207D01*
X0590881Y0342207D01*
X0590881Y0347121D01*
X0590779Y0347500D01*
X0590583Y0347841D01*
X0590305Y0348118D01*
X0589965Y0348315D01*
X0589585Y0348417D01*
X0588297Y0348417D01*
X0588297Y0342207D01*
X0588081Y0342207D01*
X0588081Y0348417D01*
X0586793Y0348417D01*
X0586693Y0348390D01*
X0586693Y0351246D01*
X0589449Y0354002D01*
X0596106Y0354002D01*
X0596106Y0353904D01*
X0599272Y0353904D01*
X0599272Y0352919D01*
X0600256Y0352919D01*
X0600256Y0349951D01*
X0602126Y0349951D01*
X0602505Y0350052D01*
X0602835Y0350243D01*
X0602835Y0340616D01*
X0605497Y0337954D01*
X0605497Y0336724D02*
X0600786Y0336724D01*
X0600779Y0336698D02*
X0600881Y0337078D01*
X0600881Y0341992D01*
X0598297Y0341992D01*
X0598297Y0342207D01*
X0600881Y0342207D01*
X0600881Y0347121D01*
X0600779Y0347500D01*
X0600583Y0347841D01*
X0600305Y0348118D01*
X0599965Y0348315D01*
X0599585Y0348417D01*
X0598297Y0348417D01*
X0598297Y0342207D01*
X0598081Y0342207D01*
X0598081Y0341992D01*
X0595497Y0341992D01*
X0595497Y0337078D01*
X0595599Y0336698D01*
X0595795Y0336358D01*
X0596073Y0336080D01*
X0596413Y0335884D01*
X0596793Y0335782D01*
X0598081Y0335782D01*
X0598081Y0341991D01*
X0598297Y0341991D01*
X0598297Y0335782D01*
X0599585Y0335782D01*
X0599965Y0335884D01*
X0600305Y0336080D01*
X0600583Y0336358D01*
X0600779Y0336698D01*
X0598297Y0336724D02*
X0598081Y0336724D01*
X0598081Y0337707D02*
X0598297Y0337707D01*
X0598297Y0338689D02*
X0598081Y0338689D01*
X0598081Y0339672D02*
X0598297Y0339672D01*
X0598297Y0340655D02*
X0598081Y0340655D01*
X0598081Y0341638D02*
X0598297Y0341638D01*
X0598189Y0342099D02*
X0598189Y0348569D01*
X0598504Y0348884D01*
X0598504Y0352152D01*
X0599764Y0353411D01*
X0599272Y0353431D02*
X0588878Y0353431D01*
X0587895Y0352448D02*
X0596106Y0352448D01*
X0596106Y0352919D02*
X0596106Y0351246D01*
X0596208Y0350867D01*
X0596404Y0350527D01*
X0596682Y0350249D01*
X0597022Y0350052D01*
X0597402Y0349951D01*
X0599272Y0349951D01*
X0599272Y0352919D01*
X0596106Y0352919D01*
X0596106Y0351465D02*
X0586912Y0351465D01*
X0586693Y0350482D02*
X0596449Y0350482D01*
X0596793Y0348417D02*
X0596413Y0348315D01*
X0596073Y0348118D01*
X0595795Y0347841D01*
X0595599Y0347500D01*
X0595497Y0347121D01*
X0595497Y0342207D01*
X0598081Y0342207D01*
X0598081Y0348417D01*
X0596793Y0348417D01*
X0595618Y0347534D02*
X0590760Y0347534D01*
X0590881Y0346551D02*
X0595497Y0346551D01*
X0595497Y0345569D02*
X0590881Y0345569D01*
X0590881Y0344586D02*
X0595497Y0344586D01*
X0595497Y0343603D02*
X0590881Y0343603D01*
X0590881Y0342620D02*
X0595497Y0342620D01*
X0595497Y0341638D02*
X0590881Y0341638D01*
X0590881Y0340655D02*
X0595497Y0340655D01*
X0595497Y0339672D02*
X0590881Y0339672D01*
X0590881Y0338689D02*
X0595497Y0338689D01*
X0595497Y0337707D02*
X0590881Y0337707D01*
X0590786Y0336724D02*
X0595592Y0336724D01*
X0594907Y0330827D02*
X0604111Y0330827D01*
X0605093Y0331810D02*
X0590381Y0331810D01*
X0589398Y0332793D02*
X0606076Y0332793D01*
X0607059Y0333776D02*
X0588415Y0333776D01*
X0587433Y0334758D02*
X0607559Y0334758D01*
X0607559Y0335741D02*
X0586693Y0335741D01*
X0588081Y0336724D02*
X0588297Y0336724D01*
X0588297Y0337707D02*
X0588081Y0337707D01*
X0588081Y0338689D02*
X0588297Y0338689D01*
X0588297Y0339672D02*
X0588081Y0339672D01*
X0588081Y0340655D02*
X0588297Y0340655D01*
X0588297Y0341638D02*
X0588081Y0341638D01*
X0588189Y0342099D02*
X0598189Y0342099D01*
X0598081Y0342620D02*
X0598297Y0342620D01*
X0598297Y0343603D02*
X0598081Y0343603D01*
X0598081Y0344586D02*
X0598297Y0344586D01*
X0598297Y0345569D02*
X0598081Y0345569D01*
X0598081Y0346551D02*
X0598297Y0346551D01*
X0598297Y0347534D02*
X0598081Y0347534D01*
X0600760Y0347534D02*
X0602835Y0347534D01*
X0602835Y0346551D02*
X0600881Y0346551D01*
X0600881Y0345569D02*
X0602835Y0345569D01*
X0602835Y0344586D02*
X0600881Y0344586D01*
X0600881Y0343603D02*
X0602835Y0343603D01*
X0602835Y0342620D02*
X0600881Y0342620D01*
X0600881Y0341638D02*
X0602835Y0341638D01*
X0602835Y0340655D02*
X0600881Y0340655D01*
X0600881Y0339672D02*
X0603779Y0339672D01*
X0602835Y0348517D02*
X0586693Y0348517D01*
X0586693Y0349500D02*
X0602835Y0349500D01*
X0600256Y0350482D02*
X0599272Y0350482D01*
X0599272Y0351465D02*
X0600256Y0351465D01*
X0600256Y0352448D02*
X0599272Y0352448D01*
X0588297Y0347534D02*
X0588081Y0347534D01*
X0588081Y0346551D02*
X0588297Y0346551D01*
X0588297Y0345569D02*
X0588081Y0345569D01*
X0588081Y0344586D02*
X0588297Y0344586D01*
X0588297Y0343603D02*
X0588081Y0343603D01*
X0588081Y0342620D02*
X0588297Y0342620D01*
X0581181Y0346522D02*
X0581181Y0334711D01*
X0584620Y0331272D01*
X0585497Y0331272D01*
X0585497Y0328805D01*
X0575276Y0324868D02*
X0575276Y0323714D01*
X0575236Y0323670D01*
X0575276Y0322900D01*
X0575271Y0322895D01*
X0574882Y0322506D01*
X0575275Y0322899D01*
X0575276Y0322900D01*
X0575276Y0324868D01*
X0575276Y0346915D01*
X0574882Y0347309D01*
X0571732Y0347309D01*
X0575276Y0346915D02*
X0575276Y0354789D01*
X0571298Y0358767D01*
X0555985Y0358767D01*
X0390236Y0359120D01*
X0387480Y0356364D01*
X0398898Y0337467D02*
X0401654Y0334711D01*
X0435906Y0334711D01*
X0439803Y0330813D01*
X0439803Y0327211D01*
X0438996Y0310242D02*
X0439331Y0309907D01*
X0449685Y0296207D02*
X0479606Y0296207D01*
X0488661Y0296207D01*
X0504409Y0296207D01*
X0514425Y0296207D01*
X0515818Y0294813D01*
X0550236Y0294813D01*
X0553862Y0298439D01*
X0554803Y0298439D01*
X0546244Y0301742D02*
X0554361Y0309859D01*
X0565385Y0309859D01*
X0573307Y0317781D01*
X0573307Y0320931D01*
X0574882Y0322506D01*
X0554803Y0323293D02*
X0554803Y0316994D01*
X0548110Y0310301D01*
X0541240Y0310301D01*
X0539921Y0308982D01*
X0533681Y0308982D01*
X0526850Y0315813D01*
X0521339Y0315813D01*
X0511496Y0325656D01*
X0492579Y0325656D01*
X0491024Y0327211D01*
X0513858Y0313844D02*
X0524488Y0303215D01*
X0535331Y0303215D01*
X0536803Y0301742D01*
X0546244Y0301742D01*
X0526457Y0280380D02*
X0520551Y0286285D01*
X0513121Y0286285D01*
X0511137Y0288270D01*
X0471304Y0288270D01*
X0465417Y0282383D01*
X0465417Y0265257D01*
X0448380Y0248220D01*
X0446659Y0248220D01*
X0439843Y0241404D01*
X0448898Y0241010D02*
X0449094Y0241207D01*
X0449094Y0246128D01*
X0467402Y0264435D01*
X0467402Y0281561D01*
X0472126Y0286285D01*
X0510315Y0286285D01*
X0516457Y0280144D01*
X0516457Y0280104D01*
X0506457Y0280104D02*
X0506102Y0280104D01*
X0500079Y0294222D02*
X0483543Y0294222D01*
X0483937Y0294222D02*
X0456378Y0294222D01*
X0449685Y0296207D02*
X0479606Y0296207D01*
X0481575Y0296207D01*
X0481181Y0296207D02*
X0488661Y0296207D01*
X0504409Y0296207D01*
X0526457Y0280380D02*
X0526457Y0280104D01*
X0536457Y0280104D02*
X0536457Y0274632D01*
X0524488Y0262663D01*
X0520157Y0262663D01*
X0492598Y0235104D01*
X0492598Y0225420D01*
X0497323Y0225420D02*
X0500694Y0228792D01*
X0500694Y0240394D01*
X0520979Y0260679D01*
X0525310Y0260679D01*
X0533200Y0268569D01*
X0541024Y0268569D01*
X0546457Y0274002D01*
X0546457Y0280104D01*
X0560906Y0260104D02*
X0576457Y0260104D01*
X0560906Y0260104D02*
X0548504Y0247703D01*
X0518976Y0247703D01*
X0525220Y0229203D02*
X0525220Y0223293D01*
X0509820Y0229203D02*
X0509816Y0229199D01*
X0506378Y0229199D01*
X0561890Y0195537D02*
X0561890Y0186285D01*
X0561890Y0195537D02*
X0576457Y0210104D01*
X0609921Y0210695D02*
X0611496Y0209120D01*
X0611496Y0203215D01*
X0613858Y0200852D01*
X0613858Y0198884D01*
X0615630Y0197112D01*
X0618583Y0194159D01*
X0621024Y0194159D01*
X0620551Y0194632D01*
X0617008Y0195734D02*
X0617008Y0193372D01*
X0617008Y0195734D02*
X0615630Y0197112D01*
X0628819Y0190666D02*
X0633478Y0186007D01*
X0633478Y0183595D01*
X0633543Y0183530D01*
X0638071Y0183530D01*
X0639252Y0182348D01*
X0647323Y0181167D02*
X0647323Y0186285D01*
X0644961Y0188648D01*
X0641811Y0188648D01*
X0640291Y0190167D01*
X0632886Y0190167D01*
X0630803Y0192250D01*
X0630803Y0204430D01*
X0620945Y0214288D01*
X0620945Y0218963D01*
X0616614Y0215813D02*
X0616220Y0215813D01*
X0616614Y0215813D02*
X0628819Y0203608D01*
X0628819Y0190666D01*
X0647323Y0181167D02*
X0648504Y0179986D01*
X0648504Y0175262D01*
X0644567Y0171325D01*
X0640039Y0171325D01*
X0639252Y0170537D01*
X0621024Y0170537D02*
X0611890Y0170537D01*
X0609921Y0210695D02*
X0609921Y0217781D01*
X0621339Y0233530D02*
X0621339Y0240695D01*
X0621024Y0241010D01*
X0606772Y0252427D02*
X0602441Y0248096D01*
X0596142Y0248096D01*
X0593780Y0245734D01*
X0606772Y0252427D02*
X0606772Y0254789D01*
X0623620Y0271244D02*
X0626239Y0268624D01*
X0645389Y0275671D02*
X0605625Y0275671D01*
X0603907Y0277389D01*
X0604575Y0273687D02*
X0604803Y0273687D01*
X0596957Y0275262D02*
X0596957Y0275840D01*
X0595961Y0276837D01*
X0595961Y0282301D01*
X0645389Y0275671D02*
X0655606Y0265454D01*
X0655606Y0256723D01*
X0650079Y0251196D01*
X0650079Y0243372D01*
X0647717Y0241010D01*
X0639252Y0241010D01*
X0517726Y0182216D02*
X0517726Y0182216D01*
X0488020Y0163736D02*
X0488020Y0163736D01*
X0470157Y0175262D02*
X0430000Y0215419D01*
X0430000Y0216207D01*
X0425669Y0215759D02*
X0421732Y0219697D01*
X0425669Y0215759D02*
X0425669Y0207545D01*
X0463071Y0170144D01*
X0463465Y0170144D01*
X0446929Y0218963D02*
X0448898Y0220931D01*
X0448898Y0223293D01*
X0341417Y0242978D02*
X0340630Y0242978D01*
X0230787Y0189041D02*
X0225787Y0194041D01*
X0220711Y0194041D01*
X0196390Y0189309D02*
X0167890Y0189309D01*
X0167890Y0188327D02*
X0196399Y0188327D01*
X0193100Y0190292D02*
X0167890Y0190292D01*
X0167751Y0191275D02*
X0192469Y0191275D01*
X0192653Y0187344D02*
X0167890Y0187344D01*
X0167890Y0186361D02*
X0192469Y0186361D01*
X0192469Y0185378D02*
X0167890Y0185378D01*
X0167890Y0184395D02*
X0192469Y0184395D01*
X0192469Y0183413D02*
X0167890Y0183413D01*
X0179413Y0169654D02*
X0196564Y0169654D01*
X0152323Y0202085D02*
X0148008Y0202085D01*
X0151162Y0201102D02*
X0126389Y0201102D01*
X0143878Y0215844D02*
X0144862Y0215844D01*
X0143878Y0215844D01*
X0148332Y0214861D02*
X0160659Y0214861D01*
X0160184Y0213878D02*
X0148362Y0213878D01*
X0155984Y0213878D01*
X0155984Y0212896D02*
X0148362Y0212896D01*
X0160090Y0212896D01*
X0160318Y0211913D02*
X0148362Y0211913D01*
X0155984Y0211913D01*
X0155984Y0210930D02*
X0148362Y0210930D01*
X0160982Y0210930D01*
X0155755Y0214861D02*
X0148332Y0214861D01*
X0132334Y0217809D02*
X0108319Y0217809D01*
X0107336Y0218792D02*
X0131352Y0218792D01*
X0130369Y0219775D02*
X0106353Y0219775D01*
X0105370Y0220758D02*
X0129386Y0220758D01*
X0128403Y0221740D02*
X0104387Y0221740D01*
X0103405Y0222723D02*
X0127420Y0222723D01*
X0126438Y0223706D02*
X0102422Y0223706D01*
X0101439Y0224689D02*
X0125455Y0224689D01*
X0124472Y0225672D02*
X0100456Y0225672D01*
X0099474Y0226654D02*
X0123489Y0226654D01*
X0122913Y0227637D02*
X0098491Y0227637D01*
X0097508Y0228620D02*
X0122913Y0228620D01*
X0122913Y0229603D02*
X0096525Y0229603D01*
X0095543Y0230585D02*
X0122913Y0230585D01*
X0122913Y0231568D02*
X0094560Y0231568D01*
X0093577Y0232551D02*
X0122913Y0232551D01*
X0122913Y0233534D02*
X0092594Y0233534D01*
X0091612Y0234516D02*
X0122913Y0234516D01*
X0122913Y0235499D02*
X0091024Y0235499D01*
X0091024Y0236482D02*
X0122913Y0236482D01*
X0122913Y0237465D02*
X0091024Y0237465D01*
X0091024Y0238447D02*
X0122913Y0238447D01*
X0122913Y0239430D02*
X0091024Y0239430D01*
X0091024Y0240413D02*
X0123891Y0240413D01*
X0124874Y0241396D02*
X0091024Y0241396D01*
X0091024Y0242379D02*
X0125857Y0242379D01*
X0126840Y0243361D02*
X0091024Y0243361D01*
X0091024Y0244344D02*
X0127638Y0244344D01*
X0127638Y0245327D02*
X0091024Y0245327D01*
X0091024Y0246310D02*
X0127638Y0246310D01*
X0127638Y0247292D02*
X0091024Y0247292D01*
X0091024Y0248275D02*
X0127638Y0248275D01*
X0127638Y0249258D02*
X0091024Y0249258D01*
X0091024Y0250241D02*
X0127638Y0250241D01*
X0127638Y0251223D02*
X0091024Y0251223D01*
X0091024Y0252206D02*
X0128204Y0252206D01*
X0129187Y0253189D02*
X0091024Y0253189D01*
X0091024Y0254172D02*
X0135519Y0254172D01*
X0134037Y0255154D02*
X0091024Y0255154D01*
X0091024Y0256137D02*
X0133308Y0256137D01*
X0132916Y0257120D02*
X0091024Y0257120D01*
X0091024Y0258103D02*
X0136704Y0258103D01*
X0137470Y0258103D02*
X0145518Y0258103D01*
X0146501Y0259085D02*
X0141288Y0259085D01*
X0140939Y0260068D02*
X0147484Y0260068D01*
X0148466Y0261051D02*
X0140281Y0261051D01*
X0138968Y0262034D02*
X0149449Y0262034D01*
X0149685Y0263017D02*
X0095314Y0263017D01*
X0096297Y0263999D02*
X0136049Y0263999D01*
X0136082Y0263989D02*
X0136704Y0263890D01*
X0136704Y0267792D01*
X0137469Y0267792D01*
X0137469Y0263890D01*
X0138092Y0263989D01*
X0138734Y0264198D01*
X0139336Y0264504D01*
X0139883Y0264901D01*
X0140360Y0265379D01*
X0140758Y0265926D01*
X0141064Y0266528D01*
X0141273Y0267170D01*
X0141372Y0267792D01*
X0137470Y0267792D01*
X0137470Y0268558D01*
X0141372Y0268558D01*
X0141273Y0269180D01*
X0141064Y0269823D01*
X0140758Y0270425D01*
X0140360Y0270971D01*
X0139883Y0271449D01*
X0139336Y0271846D01*
X0138734Y0272153D01*
X0138092Y0272362D01*
X0137469Y0272460D01*
X0137469Y0268558D01*
X0136704Y0268558D01*
X0136704Y0272460D01*
X0136082Y0272362D01*
X0135439Y0272153D01*
X0134837Y0271846D01*
X0134290Y0271449D01*
X0133813Y0270971D01*
X0133416Y0270425D01*
X0133109Y0269823D01*
X0132900Y0269180D01*
X0132802Y0268558D01*
X0136704Y0268558D01*
X0136704Y0267792D01*
X0132802Y0267792D01*
X0132900Y0267170D01*
X0133109Y0266528D01*
X0133416Y0265926D01*
X0133813Y0265379D01*
X0134290Y0264901D01*
X0134837Y0264504D01*
X0135439Y0264198D01*
X0136082Y0263989D01*
X0136704Y0263999D02*
X0137469Y0263999D01*
X0138124Y0263999D02*
X0149685Y0263999D01*
X0149685Y0264982D02*
X0139963Y0264982D01*
X0140778Y0265965D02*
X0149685Y0265965D01*
X0149685Y0266948D02*
X0141201Y0266948D01*
X0141315Y0268913D02*
X0149685Y0268913D01*
X0149685Y0267930D02*
X0137470Y0267930D01*
X0136704Y0267930D02*
X0100228Y0267930D01*
X0101210Y0268913D02*
X0132858Y0268913D01*
X0133146Y0269896D02*
X0102193Y0269896D01*
X0103176Y0270879D02*
X0133745Y0270879D01*
X0134867Y0271861D02*
X0104159Y0271861D01*
X0099245Y0266948D02*
X0132972Y0266948D01*
X0133396Y0265965D02*
X0098262Y0265965D01*
X0097279Y0264982D02*
X0134210Y0264982D01*
X0136704Y0264982D02*
X0137469Y0264982D01*
X0137469Y0265965D02*
X0136704Y0265965D01*
X0136704Y0266948D02*
X0137469Y0266948D01*
X0137469Y0268913D02*
X0136704Y0268913D01*
X0136704Y0269896D02*
X0137469Y0269896D01*
X0137469Y0270879D02*
X0136704Y0270879D01*
X0136704Y0271861D02*
X0137469Y0271861D01*
X0139306Y0271861D02*
X0149685Y0271861D01*
X0149685Y0270879D02*
X0140428Y0270879D01*
X0141027Y0269896D02*
X0149685Y0269896D01*
X0149685Y0272844D02*
X0118921Y0272844D01*
X0119904Y0273827D02*
X0149685Y0273827D01*
X0149685Y0274810D02*
X0139757Y0274810D01*
X0139883Y0274901D02*
X0140360Y0275379D01*
X0140758Y0275926D01*
X0141064Y0276528D01*
X0141273Y0277170D01*
X0141372Y0277792D01*
X0137470Y0277792D01*
X0137470Y0278558D01*
X0141372Y0278558D01*
X0141273Y0279180D01*
X0141064Y0279823D01*
X0140758Y0280425D01*
X0140360Y0280971D01*
X0139883Y0281449D01*
X0139336Y0281846D01*
X0138734Y0282153D01*
X0138092Y0282362D01*
X0137469Y0282460D01*
X0137469Y0278558D01*
X0136704Y0278558D01*
X0136704Y0282460D01*
X0136082Y0282362D01*
X0135439Y0282153D01*
X0134837Y0281846D01*
X0134290Y0281449D01*
X0133813Y0280971D01*
X0133416Y0280425D01*
X0133109Y0279823D01*
X0132900Y0279180D01*
X0132802Y0278558D01*
X0136704Y0278558D01*
X0136704Y0277792D01*
X0137469Y0277792D01*
X0137469Y0273890D01*
X0138092Y0273989D01*
X0138734Y0274198D01*
X0139336Y0274504D01*
X0139883Y0274901D01*
X0140661Y0275792D02*
X0149685Y0275792D01*
X0149685Y0276775D02*
X0141145Y0276775D01*
X0141366Y0277758D02*
X0149685Y0277758D01*
X0149685Y0278741D02*
X0141343Y0278741D01*
X0141097Y0279724D02*
X0149685Y0279724D01*
X0149685Y0280706D02*
X0140553Y0280706D01*
X0139552Y0281689D02*
X0149685Y0281689D01*
X0149685Y0282672D02*
X0128749Y0282672D01*
X0127766Y0281689D02*
X0134621Y0281689D01*
X0133620Y0280706D02*
X0126783Y0280706D01*
X0125800Y0279724D02*
X0133077Y0279724D01*
X0132831Y0278741D02*
X0124818Y0278741D01*
X0123835Y0277758D02*
X0132807Y0277758D01*
X0132802Y0277792D02*
X0132900Y0277170D01*
X0133109Y0276528D01*
X0133416Y0275926D01*
X0133813Y0275379D01*
X0134290Y0274901D01*
X0134837Y0274504D01*
X0135439Y0274198D01*
X0136082Y0273989D01*
X0136704Y0273890D01*
X0136704Y0277792D01*
X0132802Y0277792D01*
X0133028Y0276775D02*
X0122852Y0276775D01*
X0121869Y0275792D02*
X0133512Y0275792D01*
X0134417Y0274810D02*
X0120886Y0274810D01*
X0136704Y0274810D02*
X0137469Y0274810D01*
X0137469Y0275792D02*
X0136704Y0275792D01*
X0136704Y0276775D02*
X0137469Y0276775D01*
X0137469Y0277758D02*
X0136704Y0277758D01*
X0136704Y0278741D02*
X0137469Y0278741D01*
X0137469Y0279724D02*
X0136704Y0279724D01*
X0136704Y0280706D02*
X0137469Y0280706D01*
X0137469Y0281689D02*
X0136704Y0281689D01*
X0116614Y0296128D02*
X0095748Y0296128D01*
X0093505Y0298371D01*
X0093780Y0298297D01*
X0098996Y0298297D01*
X0098996Y0304809D01*
X0092484Y0304809D01*
X0092484Y0299593D01*
X0092558Y0299318D01*
X0086693Y0305183D01*
X0086693Y0315026D01*
X0082362Y0319356D01*
X0079606Y0319356D01*
X0078031Y0320931D01*
X0022289Y0320931D01*
X0022289Y0379199D01*
X0062268Y0379199D01*
X0062268Y0375612D01*
X0057689Y0375612D01*
X0056880Y0374803D01*
X0056745Y0375036D01*
X0056467Y0375314D01*
X0056127Y0375511D01*
X0055748Y0375612D01*
X0054075Y0375612D01*
X0054075Y0372447D01*
X0053091Y0372447D01*
X0053091Y0375612D01*
X0051418Y0375612D01*
X0051038Y0375511D01*
X0050698Y0375314D01*
X0050420Y0375036D01*
X0050224Y0374696D01*
X0050122Y0374317D01*
X0050122Y0372447D01*
X0053091Y0372447D01*
X0053091Y0371463D01*
X0054075Y0371463D01*
X0054075Y0368297D01*
X0055748Y0368297D01*
X0056127Y0368399D01*
X0056467Y0368595D01*
X0056745Y0368873D01*
X0056880Y0369106D01*
X0057689Y0368297D01*
X0062862Y0368297D01*
X0063496Y0368931D01*
X0078425Y0354002D01*
X0079162Y0354002D01*
X0079178Y0353986D01*
X0096551Y0353986D01*
X0104016Y0346522D01*
X0107559Y0346522D01*
X0111496Y0342585D01*
X0115039Y0342585D01*
X0123701Y0333923D01*
X0123701Y0324081D01*
X0124094Y0323687D01*
X0124094Y0303608D01*
X0116614Y0296128D01*
X0116917Y0296430D02*
X0095445Y0296430D01*
X0094463Y0297413D02*
X0117899Y0297413D01*
X0118882Y0298396D02*
X0105565Y0298396D01*
X0105576Y0298399D02*
X0105916Y0298595D01*
X0106194Y0298873D01*
X0106390Y0299213D01*
X0106492Y0299593D01*
X0106492Y0304809D01*
X0099980Y0304809D01*
X0099980Y0298297D01*
X0105196Y0298297D01*
X0105576Y0298399D01*
X0106435Y0299379D02*
X0119865Y0299379D01*
X0120848Y0300362D02*
X0106492Y0300362D01*
X0106492Y0301344D02*
X0121831Y0301344D01*
X0122813Y0302327D02*
X0106492Y0302327D01*
X0106492Y0303310D02*
X0123796Y0303310D01*
X0124094Y0304293D02*
X0106492Y0304293D01*
X0106492Y0305793D02*
X0099980Y0305793D01*
X0098996Y0305793D01*
X0098996Y0304809D01*
X0099980Y0304809D01*
X0099980Y0305793D01*
X0099980Y0312305D01*
X0105196Y0312305D01*
X0105576Y0312203D01*
X0105916Y0312007D01*
X0106194Y0311729D01*
X0106390Y0311389D01*
X0106492Y0311009D01*
X0106492Y0305793D01*
X0106492Y0306258D02*
X0124094Y0306258D01*
X0124094Y0305275D02*
X0099980Y0305275D01*
X0099980Y0304293D02*
X0098996Y0304293D01*
X0098996Y0305275D02*
X0086693Y0305275D01*
X0086693Y0306258D02*
X0092484Y0306258D01*
X0092484Y0305793D02*
X0098996Y0305793D01*
X0098996Y0312305D01*
X0093780Y0312305D01*
X0093400Y0312203D01*
X0093060Y0312007D01*
X0092782Y0311729D01*
X0092586Y0311389D01*
X0092484Y0311009D01*
X0092484Y0305793D01*
X0092484Y0307241D02*
X0086693Y0307241D01*
X0086693Y0308224D02*
X0092484Y0308224D01*
X0092484Y0309206D02*
X0086693Y0309206D01*
X0086693Y0310189D02*
X0092484Y0310189D01*
X0092528Y0311172D02*
X0086693Y0311172D01*
X0086693Y0312155D02*
X0093316Y0312155D01*
X0098996Y0312155D02*
X0099980Y0312155D01*
X0099980Y0311172D02*
X0098996Y0311172D01*
X0098996Y0310189D02*
X0099980Y0310189D01*
X0099980Y0309206D02*
X0098996Y0309206D01*
X0098996Y0308224D02*
X0099980Y0308224D01*
X0099980Y0307241D02*
X0098996Y0307241D01*
X0098996Y0306258D02*
X0099980Y0306258D01*
X0099980Y0303310D02*
X0098996Y0303310D01*
X0098996Y0302327D02*
X0099980Y0302327D01*
X0099980Y0301344D02*
X0098996Y0301344D01*
X0098996Y0300362D02*
X0099980Y0300362D01*
X0099980Y0299379D02*
X0098996Y0299379D01*
X0098996Y0298396D02*
X0099980Y0298396D01*
X0092542Y0299379D02*
X0092497Y0299379D01*
X0092484Y0300362D02*
X0091514Y0300362D01*
X0092484Y0301344D02*
X0090532Y0301344D01*
X0089549Y0302327D02*
X0092484Y0302327D01*
X0092484Y0303310D02*
X0088566Y0303310D01*
X0087583Y0304293D02*
X0092484Y0304293D01*
X0106492Y0307241D02*
X0124094Y0307241D01*
X0124094Y0308224D02*
X0106492Y0308224D01*
X0106492Y0309206D02*
X0124094Y0309206D01*
X0124094Y0310189D02*
X0106492Y0310189D01*
X0106449Y0311172D02*
X0124094Y0311172D01*
X0124094Y0312155D02*
X0105660Y0312155D01*
X0124094Y0313137D02*
X0086693Y0313137D01*
X0086693Y0314120D02*
X0124094Y0314120D01*
X0124094Y0315103D02*
X0086616Y0315103D01*
X0085633Y0316086D02*
X0124094Y0316086D01*
X0124094Y0317069D02*
X0084650Y0317069D01*
X0083667Y0318051D02*
X0124094Y0318051D01*
X0124094Y0319034D02*
X0082684Y0319034D01*
X0078946Y0320017D02*
X0124094Y0320017D01*
X0124094Y0321000D02*
X0022289Y0321000D01*
X0022289Y0321982D02*
X0124094Y0321982D01*
X0124094Y0322965D02*
X0022289Y0322965D01*
X0022289Y0323948D02*
X0123834Y0323948D01*
X0123701Y0324931D02*
X0054886Y0324931D01*
X0054866Y0324911D02*
X0055144Y0325189D01*
X0055340Y0325529D01*
X0055442Y0325909D01*
X0055442Y0343313D01*
X0041692Y0343313D01*
X0041692Y0324613D01*
X0054146Y0324613D01*
X0054526Y0324715D01*
X0054866Y0324911D01*
X0055442Y0325913D02*
X0123701Y0325913D01*
X0123701Y0326896D02*
X0055442Y0326896D01*
X0055442Y0327879D02*
X0123701Y0327879D01*
X0123701Y0328862D02*
X0055442Y0328862D01*
X0055442Y0329844D02*
X0112650Y0329844D01*
X0112474Y0329972D02*
X0113046Y0329557D01*
X0113676Y0329236D01*
X0114348Y0329017D01*
X0114908Y0328929D01*
X0114908Y0332907D01*
X0110930Y0332907D01*
X0111018Y0332347D01*
X0111237Y0331674D01*
X0111558Y0331044D01*
X0111974Y0330472D01*
X0112474Y0329972D01*
X0111716Y0330827D02*
X0055442Y0330827D01*
X0055442Y0331810D02*
X0111193Y0331810D01*
X0110948Y0332793D02*
X0055442Y0332793D01*
X0055442Y0333776D02*
X0114908Y0333776D01*
X0114908Y0333891D02*
X0114908Y0332907D01*
X0115892Y0332907D01*
X0115892Y0333891D01*
X0114908Y0333891D01*
X0114908Y0337869D01*
X0114348Y0337780D01*
X0113676Y0337562D01*
X0113046Y0337241D01*
X0112474Y0336825D01*
X0111974Y0336325D01*
X0111558Y0335753D01*
X0111237Y0335123D01*
X0111018Y0334451D01*
X0110930Y0333891D01*
X0114908Y0333891D01*
X0114908Y0334758D02*
X0115892Y0334758D01*
X0115892Y0333891D02*
X0115892Y0337869D01*
X0116452Y0337780D01*
X0117124Y0337562D01*
X0117754Y0337241D01*
X0118326Y0336825D01*
X0118826Y0336325D01*
X0119242Y0335753D01*
X0119563Y0335123D01*
X0119782Y0334451D01*
X0119870Y0333891D01*
X0115892Y0333891D01*
X0115892Y0333776D02*
X0123701Y0333776D01*
X0123701Y0332793D02*
X0119852Y0332793D01*
X0119870Y0332907D02*
X0115892Y0332907D01*
X0115892Y0328929D01*
X0116452Y0329017D01*
X0117124Y0329236D01*
X0117754Y0329557D01*
X0118326Y0329972D01*
X0118826Y0330472D01*
X0119242Y0331044D01*
X0119563Y0331674D01*
X0119782Y0332347D01*
X0119870Y0332907D01*
X0119607Y0331810D02*
X0123701Y0331810D01*
X0123701Y0330827D02*
X0119084Y0330827D01*
X0118150Y0329844D02*
X0123701Y0329844D01*
X0122866Y0334758D02*
X0119682Y0334758D01*
X0119248Y0335741D02*
X0121883Y0335741D01*
X0120900Y0336724D02*
X0118428Y0336724D01*
X0119917Y0337707D02*
X0116679Y0337707D01*
X0115892Y0337707D02*
X0114908Y0337707D01*
X0114121Y0337707D02*
X0055442Y0337707D01*
X0055442Y0338689D02*
X0118935Y0338689D01*
X0117952Y0339672D02*
X0055442Y0339672D01*
X0055442Y0340655D02*
X0116969Y0340655D01*
X0115986Y0341638D02*
X0055442Y0341638D01*
X0055442Y0342620D02*
X0111460Y0342620D01*
X0110478Y0343603D02*
X0041692Y0343603D01*
X0041692Y0343313D02*
X0041692Y0344297D01*
X0055442Y0344297D01*
X0055442Y0361702D01*
X0055340Y0362081D01*
X0055144Y0362421D01*
X0054866Y0362699D01*
X0054526Y0362896D01*
X0054146Y0362997D01*
X0041692Y0362997D01*
X0041692Y0344297D01*
X0040708Y0344297D01*
X0040708Y0343313D01*
X0041692Y0343313D01*
X0041692Y0342620D02*
X0040708Y0342620D01*
X0040708Y0343313D02*
X0040708Y0324613D01*
X0028254Y0324613D01*
X0027874Y0324715D01*
X0027534Y0324911D01*
X0027256Y0325189D01*
X0027060Y0325529D01*
X0026958Y0325909D01*
X0026958Y0343313D01*
X0040708Y0343313D01*
X0040708Y0343603D02*
X0022289Y0343603D01*
X0022289Y0342620D02*
X0026958Y0342620D01*
X0026958Y0341638D02*
X0022289Y0341638D01*
X0022289Y0340655D02*
X0026958Y0340655D01*
X0026958Y0339672D02*
X0022289Y0339672D01*
X0022289Y0338689D02*
X0026958Y0338689D01*
X0026958Y0337707D02*
X0022289Y0337707D01*
X0022289Y0336724D02*
X0026958Y0336724D01*
X0026958Y0335741D02*
X0022289Y0335741D01*
X0022289Y0334758D02*
X0026958Y0334758D01*
X0026958Y0333776D02*
X0022289Y0333776D01*
X0022289Y0332793D02*
X0026958Y0332793D01*
X0026958Y0331810D02*
X0022289Y0331810D01*
X0022289Y0330827D02*
X0026958Y0330827D01*
X0026958Y0329844D02*
X0022289Y0329844D01*
X0022289Y0328862D02*
X0026958Y0328862D01*
X0026958Y0327879D02*
X0022289Y0327879D01*
X0022289Y0326896D02*
X0026958Y0326896D01*
X0026958Y0325913D02*
X0022289Y0325913D01*
X0022289Y0324931D02*
X0027514Y0324931D01*
X0040708Y0324931D02*
X0041692Y0324931D01*
X0041692Y0325913D02*
X0040708Y0325913D01*
X0040708Y0326896D02*
X0041692Y0326896D01*
X0041692Y0327879D02*
X0040708Y0327879D01*
X0040708Y0328862D02*
X0041692Y0328862D01*
X0041692Y0329844D02*
X0040708Y0329844D01*
X0040708Y0330827D02*
X0041692Y0330827D01*
X0041692Y0331810D02*
X0040708Y0331810D01*
X0040708Y0332793D02*
X0041692Y0332793D01*
X0041692Y0333776D02*
X0040708Y0333776D01*
X0040708Y0334758D02*
X0041692Y0334758D01*
X0041692Y0335741D02*
X0040708Y0335741D01*
X0040708Y0336724D02*
X0041692Y0336724D01*
X0041692Y0337707D02*
X0040708Y0337707D01*
X0040708Y0338689D02*
X0041692Y0338689D01*
X0041692Y0339672D02*
X0040708Y0339672D01*
X0040708Y0340655D02*
X0041692Y0340655D01*
X0041692Y0341638D02*
X0040708Y0341638D01*
X0040708Y0344297D02*
X0026958Y0344297D01*
X0026958Y0361702D01*
X0027060Y0362081D01*
X0027256Y0362421D01*
X0027534Y0362699D01*
X0027874Y0362896D01*
X0028254Y0362997D01*
X0040708Y0362997D01*
X0040708Y0344297D01*
X0040708Y0344586D02*
X0041692Y0344586D01*
X0041692Y0345569D02*
X0040708Y0345569D01*
X0040708Y0346551D02*
X0041692Y0346551D01*
X0041692Y0347534D02*
X0040708Y0347534D01*
X0040708Y0348517D02*
X0041692Y0348517D01*
X0041692Y0349500D02*
X0040708Y0349500D01*
X0040708Y0350482D02*
X0041692Y0350482D01*
X0041692Y0351465D02*
X0040708Y0351465D01*
X0040708Y0352448D02*
X0041692Y0352448D01*
X0041692Y0353431D02*
X0040708Y0353431D01*
X0040708Y0354414D02*
X0041692Y0354414D01*
X0041692Y0355396D02*
X0040708Y0355396D01*
X0040708Y0356379D02*
X0041692Y0356379D01*
X0041692Y0357362D02*
X0040708Y0357362D01*
X0040708Y0358345D02*
X0041692Y0358345D01*
X0041692Y0359327D02*
X0040708Y0359327D01*
X0040708Y0360310D02*
X0041692Y0360310D01*
X0041692Y0361293D02*
X0040708Y0361293D01*
X0040708Y0362276D02*
X0041692Y0362276D01*
X0050420Y0368873D02*
X0050698Y0368595D01*
X0051038Y0368399D01*
X0051418Y0368297D01*
X0053091Y0368297D01*
X0053091Y0371463D01*
X0050122Y0371463D01*
X0050122Y0369593D01*
X0050224Y0369213D01*
X0050420Y0368873D01*
X0050257Y0369155D02*
X0022289Y0369155D01*
X0022289Y0370138D02*
X0050122Y0370138D01*
X0050122Y0371121D02*
X0022289Y0371121D01*
X0022289Y0372103D02*
X0053091Y0372103D01*
X0053091Y0371121D02*
X0054075Y0371121D01*
X0054075Y0370138D02*
X0053091Y0370138D01*
X0053091Y0369155D02*
X0054075Y0369155D01*
X0054075Y0373086D02*
X0053091Y0373086D01*
X0053091Y0374069D02*
X0054075Y0374069D01*
X0054075Y0375052D02*
X0053091Y0375052D01*
X0050435Y0375052D02*
X0022289Y0375052D01*
X0022289Y0376034D02*
X0062268Y0376034D01*
X0062268Y0377017D02*
X0022289Y0377017D01*
X0022289Y0378000D02*
X0062268Y0378000D01*
X0062268Y0378983D02*
X0022289Y0378983D01*
X0022289Y0374069D02*
X0050122Y0374069D01*
X0050122Y0373086D02*
X0022289Y0373086D01*
X0022289Y0368172D02*
X0064255Y0368172D01*
X0065238Y0367189D02*
X0022289Y0367189D01*
X0022289Y0366207D02*
X0066220Y0366207D01*
X0067203Y0365224D02*
X0022289Y0365224D01*
X0022289Y0364241D02*
X0068186Y0364241D01*
X0069169Y0363258D02*
X0022289Y0363258D01*
X0022289Y0362276D02*
X0027172Y0362276D01*
X0026958Y0361293D02*
X0022289Y0361293D01*
X0022289Y0360310D02*
X0026958Y0360310D01*
X0026958Y0359327D02*
X0022289Y0359327D01*
X0022289Y0358345D02*
X0026958Y0358345D01*
X0026958Y0357362D02*
X0022289Y0357362D01*
X0022289Y0356379D02*
X0026958Y0356379D01*
X0026958Y0355396D02*
X0022289Y0355396D01*
X0022289Y0354414D02*
X0026958Y0354414D01*
X0026958Y0353431D02*
X0022289Y0353431D01*
X0022289Y0352448D02*
X0026958Y0352448D01*
X0026958Y0351465D02*
X0022289Y0351465D01*
X0022289Y0350482D02*
X0026958Y0350482D01*
X0026958Y0349500D02*
X0022289Y0349500D01*
X0022289Y0348517D02*
X0026958Y0348517D01*
X0026958Y0347534D02*
X0022289Y0347534D01*
X0022289Y0346551D02*
X0026958Y0346551D01*
X0026958Y0345569D02*
X0022289Y0345569D01*
X0022289Y0344586D02*
X0026958Y0344586D01*
X0055442Y0344586D02*
X0109495Y0344586D01*
X0108512Y0345569D02*
X0055442Y0345569D01*
X0055442Y0346551D02*
X0103986Y0346551D01*
X0103003Y0347534D02*
X0055442Y0347534D01*
X0055442Y0348517D02*
X0102020Y0348517D01*
X0101038Y0349500D02*
X0055442Y0349500D01*
X0055442Y0350482D02*
X0100055Y0350482D01*
X0099072Y0351465D02*
X0055442Y0351465D01*
X0055442Y0352448D02*
X0098089Y0352448D01*
X0097107Y0353431D02*
X0055442Y0353431D01*
X0055442Y0354414D02*
X0078014Y0354414D01*
X0077031Y0355396D02*
X0055442Y0355396D01*
X0055442Y0356379D02*
X0076048Y0356379D01*
X0075065Y0357362D02*
X0055442Y0357362D01*
X0055442Y0358345D02*
X0074083Y0358345D01*
X0073100Y0359327D02*
X0055442Y0359327D01*
X0055442Y0360310D02*
X0072117Y0360310D01*
X0071134Y0361293D02*
X0055442Y0361293D01*
X0055228Y0362276D02*
X0070152Y0362276D01*
X0071729Y0364241D02*
X0079067Y0364241D01*
X0078987Y0364433D02*
X0079441Y0363337D01*
X0080280Y0362498D01*
X0081376Y0362044D01*
X0082561Y0362044D01*
X0083657Y0362498D01*
X0084496Y0363337D01*
X0084950Y0364433D01*
X0084950Y0365619D01*
X0084496Y0366714D01*
X0084068Y0367142D01*
X0084076Y0367376D01*
X0084350Y0367376D01*
X0085224Y0368250D01*
X0085224Y0375187D01*
X0084350Y0376061D01*
X0080113Y0376061D01*
X0079239Y0375187D01*
X0079239Y0368250D01*
X0080100Y0367390D01*
X0080099Y0367372D01*
X0079441Y0366714D01*
X0078987Y0365619D01*
X0078987Y0364433D01*
X0078987Y0365224D02*
X0070747Y0365224D01*
X0069764Y0366207D02*
X0079231Y0366207D01*
X0079916Y0367189D02*
X0068781Y0367189D01*
X0067798Y0368172D02*
X0070918Y0368172D01*
X0070839Y0368250D02*
X0071713Y0367376D01*
X0075950Y0367376D01*
X0076824Y0368250D01*
X0076824Y0375187D01*
X0075950Y0376061D01*
X0071713Y0376061D01*
X0070839Y0375187D01*
X0070839Y0373747D01*
X0064252Y0373747D01*
X0064252Y0408957D01*
X0165203Y0408957D01*
X0172126Y0402033D01*
X0172126Y0378411D01*
X0167008Y0373293D01*
X0154016Y0373293D01*
X0149291Y0368569D01*
X0132756Y0368569D01*
X0127244Y0363057D01*
X0127244Y0350065D01*
X0125669Y0348490D01*
X0112283Y0348490D01*
X0104803Y0355970D01*
X0080000Y0355970D01*
X0065808Y0370163D01*
X0070839Y0370163D01*
X0070839Y0368250D01*
X0070839Y0369155D02*
X0066815Y0369155D01*
X0065833Y0370138D02*
X0070839Y0370138D01*
X0070839Y0374069D02*
X0064252Y0374069D01*
X0064252Y0375052D02*
X0070839Y0375052D01*
X0071687Y0376034D02*
X0064252Y0376034D01*
X0064252Y0377017D02*
X0086599Y0377017D01*
X0086689Y0376740D02*
X0087048Y0376036D01*
X0087512Y0375398D01*
X0088070Y0374839D01*
X0088709Y0374375D01*
X0089413Y0374016D01*
X0090164Y0373772D01*
X0090846Y0373664D01*
X0090846Y0381699D01*
X0086321Y0381699D01*
X0086321Y0378271D01*
X0086445Y0377491D01*
X0086689Y0376740D01*
X0087049Y0376034D02*
X0084376Y0376034D01*
X0085224Y0375052D02*
X0087858Y0375052D01*
X0089310Y0374069D02*
X0085224Y0374069D01*
X0085224Y0373086D02*
X0153808Y0373086D01*
X0152826Y0372103D02*
X0085224Y0372103D01*
X0085224Y0371121D02*
X0151843Y0371121D01*
X0150860Y0370138D02*
X0085224Y0370138D01*
X0085224Y0369155D02*
X0149877Y0369155D01*
X0132359Y0368172D02*
X0085145Y0368172D01*
X0084069Y0367189D02*
X0131376Y0367189D01*
X0130394Y0366207D02*
X0084706Y0366207D01*
X0084950Y0365224D02*
X0129411Y0365224D01*
X0128428Y0364241D02*
X0084870Y0364241D01*
X0084417Y0363258D02*
X0127445Y0363258D01*
X0127244Y0362276D02*
X0083120Y0362276D01*
X0080817Y0362276D02*
X0073695Y0362276D01*
X0072712Y0363258D02*
X0079520Y0363258D01*
X0081969Y0365026D02*
X0082099Y0367651D01*
X0082231Y0371719D01*
X0079239Y0372103D02*
X0076824Y0372103D01*
X0076824Y0371121D02*
X0079239Y0371121D01*
X0079239Y0370138D02*
X0076824Y0370138D01*
X0076824Y0369155D02*
X0079239Y0369155D01*
X0079318Y0368172D02*
X0076745Y0368172D01*
X0076824Y0373086D02*
X0079239Y0373086D01*
X0079239Y0374069D02*
X0076824Y0374069D01*
X0076824Y0375052D02*
X0079239Y0375052D01*
X0080087Y0376034D02*
X0075976Y0376034D01*
X0086364Y0378000D02*
X0064252Y0378000D01*
X0064252Y0378983D02*
X0086321Y0378983D01*
X0086321Y0379965D02*
X0064252Y0379965D01*
X0064252Y0380948D02*
X0086321Y0380948D01*
X0086321Y0382683D02*
X0090846Y0382683D01*
X0090846Y0381699D01*
X0091831Y0381699D01*
X0091831Y0382683D01*
X0096356Y0382683D01*
X0096356Y0386111D01*
X0096232Y0386891D01*
X0095988Y0387642D01*
X0095630Y0388345D01*
X0095165Y0388984D01*
X0094607Y0389543D01*
X0093968Y0390007D01*
X0093264Y0390365D01*
X0092513Y0390610D01*
X0091831Y0390718D01*
X0091831Y0382683D01*
X0090846Y0382683D01*
X0090846Y0390718D01*
X0090164Y0390610D01*
X0089413Y0390365D01*
X0088709Y0390007D01*
X0088070Y0389543D01*
X0087512Y0388984D01*
X0087048Y0388345D01*
X0086689Y0387642D01*
X0086445Y0386891D01*
X0086321Y0386111D01*
X0086321Y0382683D01*
X0086321Y0382914D02*
X0064252Y0382914D01*
X0064252Y0383896D02*
X0086321Y0383896D01*
X0086321Y0384879D02*
X0064252Y0384879D01*
X0064252Y0385862D02*
X0086321Y0385862D01*
X0086438Y0386845D02*
X0064252Y0386845D01*
X0064252Y0387827D02*
X0086784Y0387827D01*
X0087385Y0388810D02*
X0064252Y0388810D01*
X0064252Y0389793D02*
X0088415Y0389793D01*
X0090846Y0389793D02*
X0091831Y0389793D01*
X0091831Y0388810D02*
X0090846Y0388810D01*
X0090846Y0387827D02*
X0091831Y0387827D01*
X0091831Y0386845D02*
X0090846Y0386845D01*
X0090846Y0385862D02*
X0091831Y0385862D01*
X0091831Y0384879D02*
X0090846Y0384879D01*
X0090846Y0383896D02*
X0091831Y0383896D01*
X0091831Y0382914D02*
X0090846Y0382914D01*
X0090846Y0381931D02*
X0064252Y0381931D01*
X0064252Y0390776D02*
X0132611Y0390776D01*
X0132611Y0391581D02*
X0132611Y0388051D01*
X0132713Y0387672D01*
X0132909Y0387332D01*
X0133187Y0387054D01*
X0133527Y0386857D01*
X0133907Y0386756D01*
X0137436Y0386756D01*
X0137436Y0391581D01*
X0132611Y0391581D01*
X0132611Y0392565D02*
X0137436Y0392565D01*
X0137436Y0391581D01*
X0138420Y0391581D01*
X0138420Y0386756D01*
X0141950Y0386756D01*
X0142329Y0386857D01*
X0142670Y0387054D01*
X0142947Y0387332D01*
X0143144Y0387672D01*
X0143245Y0388051D01*
X0143245Y0391581D01*
X0138421Y0391581D01*
X0138421Y0392565D01*
X0143245Y0392565D01*
X0143245Y0396094D01*
X0143144Y0396474D01*
X0142947Y0396814D01*
X0142670Y0397092D01*
X0142329Y0397288D01*
X0141950Y0397390D01*
X0138420Y0397390D01*
X0138420Y0392565D01*
X0137436Y0392565D01*
X0137436Y0397390D01*
X0133907Y0397390D01*
X0133527Y0397288D01*
X0133187Y0397092D01*
X0132909Y0396814D01*
X0132713Y0396474D01*
X0132611Y0396094D01*
X0132611Y0392565D01*
X0132611Y0392741D02*
X0064252Y0392741D01*
X0064252Y0391759D02*
X0137436Y0391759D01*
X0137928Y0392073D02*
X0158428Y0392073D01*
X0157936Y0391759D02*
X0138421Y0391759D01*
X0138420Y0392741D02*
X0137436Y0392741D01*
X0137436Y0393724D02*
X0138420Y0393724D01*
X0138420Y0394707D02*
X0137436Y0394707D01*
X0137436Y0395690D02*
X0138420Y0395690D01*
X0138420Y0396672D02*
X0137436Y0396672D01*
X0132828Y0396672D02*
X0064252Y0396672D01*
X0064252Y0395690D02*
X0132611Y0395690D01*
X0132611Y0394707D02*
X0064252Y0394707D01*
X0064252Y0393724D02*
X0132611Y0393724D01*
X0132611Y0389793D02*
X0094263Y0389793D01*
X0095292Y0388810D02*
X0132611Y0388810D01*
X0132671Y0387827D02*
X0095894Y0387827D01*
X0096239Y0386845D02*
X0133575Y0386845D01*
X0137436Y0386845D02*
X0138420Y0386845D01*
X0138420Y0387827D02*
X0137436Y0387827D01*
X0137436Y0388810D02*
X0138420Y0388810D01*
X0138420Y0389793D02*
X0137436Y0389793D01*
X0137436Y0390776D02*
X0138420Y0390776D01*
X0143245Y0390776D02*
X0153111Y0390776D01*
X0153111Y0391581D02*
X0153111Y0388051D01*
X0153213Y0387672D01*
X0153409Y0387332D01*
X0153687Y0387054D01*
X0154027Y0386857D01*
X0154407Y0386756D01*
X0157936Y0386756D01*
X0157936Y0391581D01*
X0153111Y0391581D01*
X0153111Y0392565D02*
X0157936Y0392565D01*
X0157936Y0391581D01*
X0158920Y0391581D01*
X0158920Y0386756D01*
X0162450Y0386756D01*
X0162829Y0386857D01*
X0163170Y0387054D01*
X0163447Y0387332D01*
X0163644Y0387672D01*
X0163745Y0388051D01*
X0163745Y0391581D01*
X0158921Y0391581D01*
X0158921Y0392565D01*
X0163745Y0392565D01*
X0163745Y0396094D01*
X0163644Y0396474D01*
X0163447Y0396814D01*
X0163170Y0397092D01*
X0162829Y0397288D01*
X0162450Y0397390D01*
X0158920Y0397390D01*
X0158920Y0392565D01*
X0157936Y0392565D01*
X0157936Y0397390D01*
X0154407Y0397390D01*
X0154027Y0397288D01*
X0153687Y0397092D01*
X0153409Y0396814D01*
X0153213Y0396474D01*
X0153111Y0396094D01*
X0153111Y0392565D01*
X0153111Y0392741D02*
X0143245Y0392741D01*
X0143245Y0393724D02*
X0153111Y0393724D01*
X0153111Y0394707D02*
X0143245Y0394707D01*
X0143245Y0395690D02*
X0153111Y0395690D01*
X0153328Y0396672D02*
X0143029Y0396672D01*
X0143245Y0389793D02*
X0153111Y0389793D01*
X0153111Y0388810D02*
X0143245Y0388810D01*
X0143185Y0387827D02*
X0153171Y0387827D01*
X0154075Y0386845D02*
X0142282Y0386845D01*
X0157936Y0386845D02*
X0158920Y0386845D01*
X0158920Y0387827D02*
X0157936Y0387827D01*
X0157936Y0388810D02*
X0158920Y0388810D01*
X0158920Y0389793D02*
X0157936Y0389793D01*
X0157936Y0390776D02*
X0158920Y0390776D01*
X0158921Y0391759D02*
X0172126Y0391759D01*
X0172126Y0392741D02*
X0163745Y0392741D01*
X0163745Y0393724D02*
X0172126Y0393724D01*
X0172126Y0394707D02*
X0163745Y0394707D01*
X0163745Y0395690D02*
X0172126Y0395690D01*
X0172126Y0396672D02*
X0163529Y0396672D01*
X0158920Y0396672D02*
X0157936Y0396672D01*
X0157936Y0395690D02*
X0158920Y0395690D01*
X0158920Y0394707D02*
X0157936Y0394707D01*
X0157936Y0393724D02*
X0158920Y0393724D01*
X0158920Y0392741D02*
X0157936Y0392741D01*
X0163745Y0390776D02*
X0172126Y0390776D01*
X0172126Y0389793D02*
X0163745Y0389793D01*
X0163745Y0388810D02*
X0172126Y0388810D01*
X0172126Y0387827D02*
X0163685Y0387827D01*
X0162782Y0386845D02*
X0172126Y0386845D01*
X0172126Y0385862D02*
X0096356Y0385862D01*
X0096356Y0384879D02*
X0172126Y0384879D01*
X0172126Y0383896D02*
X0096356Y0383896D01*
X0096356Y0382914D02*
X0172126Y0382914D01*
X0172126Y0381931D02*
X0091831Y0381931D01*
X0091831Y0381699D02*
X0096356Y0381699D01*
X0096356Y0378271D01*
X0096232Y0377491D01*
X0095988Y0376740D01*
X0095630Y0376036D01*
X0095165Y0375398D01*
X0094607Y0374839D01*
X0093968Y0374375D01*
X0093264Y0374016D01*
X0092513Y0373772D01*
X0091831Y0373664D01*
X0091831Y0381699D01*
X0091831Y0380948D02*
X0090846Y0380948D01*
X0090846Y0379965D02*
X0091831Y0379965D01*
X0091831Y0378983D02*
X0090846Y0378983D01*
X0090846Y0378000D02*
X0091831Y0378000D01*
X0091831Y0377017D02*
X0090846Y0377017D01*
X0090846Y0376034D02*
X0091831Y0376034D01*
X0091831Y0375052D02*
X0090846Y0375052D01*
X0090846Y0374069D02*
X0091831Y0374069D01*
X0093367Y0374069D02*
X0167783Y0374069D01*
X0168766Y0375052D02*
X0094819Y0375052D01*
X0095628Y0376034D02*
X0169749Y0376034D01*
X0170732Y0377017D02*
X0096078Y0377017D01*
X0096313Y0378000D02*
X0171714Y0378000D01*
X0172126Y0378983D02*
X0096356Y0378983D01*
X0096356Y0379965D02*
X0172126Y0379965D01*
X0172126Y0380948D02*
X0096356Y0380948D01*
X0075660Y0360310D02*
X0127244Y0360310D01*
X0127244Y0359327D02*
X0076643Y0359327D01*
X0077626Y0358345D02*
X0113642Y0358345D01*
X0113676Y0358362D02*
X0113046Y0358041D01*
X0112474Y0357625D01*
X0111974Y0357125D01*
X0111558Y0356553D01*
X0111237Y0355923D01*
X0111018Y0355251D01*
X0110930Y0354691D01*
X0114908Y0354691D01*
X0114908Y0358669D01*
X0114348Y0358580D01*
X0113676Y0358362D01*
X0114908Y0358345D02*
X0115892Y0358345D01*
X0115892Y0358669D02*
X0115892Y0354691D01*
X0114908Y0354691D01*
X0114908Y0353707D01*
X0110930Y0353707D01*
X0111018Y0353147D01*
X0111237Y0352474D01*
X0111558Y0351844D01*
X0111974Y0351272D01*
X0112474Y0350772D01*
X0113046Y0350357D01*
X0113676Y0350036D01*
X0114348Y0349817D01*
X0114908Y0349729D01*
X0114908Y0353707D01*
X0115892Y0353707D01*
X0115892Y0354691D01*
X0119870Y0354691D01*
X0119782Y0355251D01*
X0119563Y0355923D01*
X0119242Y0356553D01*
X0118826Y0357125D01*
X0118326Y0357625D01*
X0117754Y0358041D01*
X0117124Y0358362D01*
X0116452Y0358580D01*
X0115892Y0358669D01*
X0117158Y0358345D02*
X0127244Y0358345D01*
X0127244Y0357362D02*
X0118590Y0357362D01*
X0119331Y0356379D02*
X0127244Y0356379D01*
X0127244Y0355396D02*
X0119734Y0355396D01*
X0119870Y0353707D02*
X0115892Y0353707D01*
X0115892Y0349729D01*
X0116452Y0349817D01*
X0117124Y0350036D01*
X0117754Y0350357D01*
X0118326Y0350772D01*
X0118826Y0351272D01*
X0119242Y0351844D01*
X0119563Y0352474D01*
X0119782Y0353147D01*
X0119870Y0353707D01*
X0119826Y0353431D02*
X0127244Y0353431D01*
X0127244Y0354414D02*
X0115892Y0354414D01*
X0115892Y0355396D02*
X0114908Y0355396D01*
X0114908Y0354414D02*
X0106360Y0354414D01*
X0105377Y0355396D02*
X0111066Y0355396D01*
X0111469Y0356379D02*
X0079591Y0356379D01*
X0078609Y0357362D02*
X0112210Y0357362D01*
X0114908Y0357362D02*
X0115892Y0357362D01*
X0115892Y0356379D02*
X0114908Y0356379D01*
X0114908Y0353431D02*
X0115892Y0353431D01*
X0115892Y0352448D02*
X0114908Y0352448D01*
X0114908Y0351465D02*
X0115892Y0351465D01*
X0115892Y0350482D02*
X0114908Y0350482D01*
X0112873Y0350482D02*
X0110291Y0350482D01*
X0111274Y0349500D02*
X0126679Y0349500D01*
X0127244Y0350482D02*
X0117927Y0350482D01*
X0118966Y0351465D02*
X0127244Y0351465D01*
X0127244Y0352448D02*
X0119550Y0352448D01*
X0125696Y0348517D02*
X0112257Y0348517D01*
X0111833Y0351465D02*
X0109308Y0351465D01*
X0108326Y0352448D02*
X0111250Y0352448D01*
X0110974Y0353431D02*
X0107343Y0353431D01*
X0127244Y0361293D02*
X0074678Y0361293D01*
X0057128Y0375052D02*
X0056730Y0375052D01*
X0064252Y0397655D02*
X0172126Y0397655D01*
X0172126Y0398638D02*
X0064252Y0398638D01*
X0064252Y0399621D02*
X0172126Y0399621D01*
X0172126Y0400603D02*
X0064252Y0400603D01*
X0064252Y0401586D02*
X0172126Y0401586D01*
X0171591Y0402569D02*
X0064252Y0402569D01*
X0064252Y0403552D02*
X0170608Y0403552D01*
X0169625Y0404534D02*
X0064252Y0404534D01*
X0064252Y0405517D02*
X0168642Y0405517D01*
X0167659Y0406500D02*
X0064252Y0406500D01*
X0064252Y0407483D02*
X0166677Y0407483D01*
X0165694Y0408466D02*
X0064252Y0408466D01*
X0055442Y0336724D02*
X0112372Y0336724D01*
X0111552Y0335741D02*
X0055442Y0335741D01*
X0055442Y0334758D02*
X0111118Y0334758D01*
X0114908Y0335741D02*
X0115892Y0335741D01*
X0115892Y0336724D02*
X0114908Y0336724D01*
X0114908Y0332793D02*
X0115892Y0332793D01*
X0115892Y0331810D02*
X0114908Y0331810D01*
X0114908Y0330827D02*
X0115892Y0330827D01*
X0115892Y0329844D02*
X0114908Y0329844D01*
X0135205Y0262034D02*
X0094331Y0262034D01*
X0093348Y0261051D02*
X0133892Y0261051D01*
X0133234Y0260068D02*
X0092366Y0260068D01*
X0091383Y0259085D02*
X0132885Y0259085D01*
X0136704Y0259085D02*
X0137469Y0259085D01*
X0137469Y0260068D02*
X0136704Y0260068D01*
X0136704Y0261051D02*
X0137469Y0261051D01*
X0137469Y0262034D02*
X0136704Y0262034D01*
X0141257Y0257120D02*
X0144535Y0257120D01*
X0143553Y0256137D02*
X0140865Y0256137D01*
X0140136Y0255154D02*
X0142570Y0255154D01*
X0141587Y0254172D02*
X0138655Y0254172D01*
X0144173Y0236679D02*
X0144173Y0227230D01*
X0144370Y0227033D01*
X0265927Y0079313D02*
X0305984Y0119371D01*
X0312694Y0094964D02*
X0334621Y0094964D01*
X0332991Y0093981D02*
X0311712Y0093981D01*
X0310729Y0092998D02*
X0332036Y0092998D01*
X0331629Y0092016D02*
X0309746Y0092016D01*
X0308763Y0091033D02*
X0331265Y0091033D01*
X0331265Y0090050D02*
X0307781Y0090050D01*
X0306798Y0089067D02*
X0331266Y0089067D01*
X0331673Y0088085D02*
X0305815Y0088085D01*
X0305197Y0087102D02*
X0332116Y0087102D01*
X0333099Y0086119D02*
X0305197Y0086119D01*
X0305197Y0085136D02*
X0334883Y0085136D01*
X0338031Y0085136D02*
X0344883Y0085136D01*
X0343099Y0086119D02*
X0339814Y0086119D01*
X0340797Y0087102D02*
X0342116Y0087102D01*
X0341673Y0088085D02*
X0341240Y0088085D01*
X0341285Y0092016D02*
X0341629Y0092016D01*
X0342036Y0092998D02*
X0340878Y0092998D01*
X0339923Y0093981D02*
X0342991Y0093981D01*
X0344621Y0094964D02*
X0338292Y0094964D01*
X0348292Y0094964D02*
X0354621Y0094964D01*
X0352991Y0093981D02*
X0349923Y0093981D01*
X0350878Y0092998D02*
X0352036Y0092998D01*
X0351629Y0092016D02*
X0351285Y0092016D01*
X0351240Y0088085D02*
X0351673Y0088085D01*
X0352116Y0087102D02*
X0350797Y0087102D01*
X0349814Y0086119D02*
X0353099Y0086119D01*
X0354883Y0085136D02*
X0348031Y0085136D01*
X0358031Y0085136D02*
X0364883Y0085136D01*
X0363099Y0086119D02*
X0359814Y0086119D01*
X0360797Y0087102D02*
X0362116Y0087102D01*
X0361673Y0088085D02*
X0361240Y0088085D01*
X0361285Y0092016D02*
X0361629Y0092016D01*
X0362036Y0092998D02*
X0360878Y0092998D01*
X0359923Y0093981D02*
X0362991Y0093981D01*
X0364621Y0094964D02*
X0358292Y0094964D01*
X0368292Y0094964D02*
X0374621Y0094964D01*
X0372991Y0093981D02*
X0369923Y0093981D01*
X0370878Y0092998D02*
X0372036Y0092998D01*
X0371629Y0092016D02*
X0371285Y0092016D01*
X0371240Y0088085D02*
X0371673Y0088085D01*
X0372116Y0087102D02*
X0370797Y0087102D01*
X0369814Y0086119D02*
X0373099Y0086119D01*
X0374883Y0085136D02*
X0368031Y0085136D01*
X0328819Y0028136D02*
X0322787Y0028136D01*
X0323757Y0027153D02*
X0328819Y0027153D01*
X0328819Y0026171D02*
X0324164Y0026171D01*
X0324484Y0025188D02*
X0328587Y0025188D01*
X0328587Y0024205D02*
X0324484Y0024205D01*
X0324381Y0023222D02*
X0328690Y0023222D01*
X0328819Y0022240D02*
X0323973Y0022240D01*
X0323310Y0021257D02*
X0328819Y0021257D01*
X0328819Y0018308D02*
X0284270Y0018308D01*
X0328819Y0015360D02*
X0230004Y0015360D01*
X0230091Y0014377D02*
X0328819Y0014377D01*
X0328819Y0013395D02*
X0230091Y0013395D01*
X0229696Y0012412D02*
X0328819Y0012412D01*
X0328819Y0011429D02*
X0229123Y0011429D01*
X0228135Y0010446D02*
X0328819Y0010446D01*
X0328819Y0009464D02*
X0186156Y0009464D01*
X0183707Y0021257D02*
X0216247Y0021257D01*
X0215572Y0022240D02*
X0183707Y0022240D01*
X0183707Y0023222D02*
X0215165Y0023222D01*
X0215106Y0024205D02*
X0183707Y0024205D01*
X0183707Y0025188D02*
X0215121Y0025188D01*
X0215528Y0026171D02*
X0183707Y0026171D01*
X0183707Y0027153D02*
X0216141Y0027153D01*
X0217223Y0028136D02*
X0183707Y0028136D01*
X0222598Y0054258D02*
X0222736Y0054396D01*
X0238661Y0054396D01*
X0263579Y0079313D01*
X0265927Y0079313D01*
X0558740Y0120029D02*
X0569595Y0109174D01*
X0569595Y0108895D01*
X0600866Y0060301D02*
X0595773Y0055208D01*
X0595748Y0055208D01*
X0592853Y0052313D01*
X0651654Y0046915D02*
X0654587Y0047132D01*
X0659567Y0047132D01*
X0539921Y0327211D02*
X0540236Y0327526D01*
X0540236Y0332348D01*
X0541024Y0331561D01*
X0541811Y0331561D01*
X0546142Y0335892D01*
X0550472Y0335892D01*
X0580787Y0346915D02*
X0581181Y0346522D01*
D41*
X0580787Y0346915D03*
X0571732Y0347309D03*
X0550472Y0335892D03*
X0554803Y0323293D03*
X0562677Y0322112D03*
X0561890Y0313451D03*
X0588268Y0298096D03*
X0598942Y0281955D03*
X0607559Y0279986D03*
X0596957Y0275262D03*
X0606772Y0254789D03*
X0621339Y0233530D03*
X0620945Y0218963D03*
X0616220Y0215813D03*
X0649685Y0194159D03*
X0670945Y0194553D03*
X0628425Y0156758D03*
X0642992Y0144159D03*
X0629606Y0132348D03*
X0649291Y0122112D03*
X0670551Y0110695D03*
X0668583Y0071719D03*
X0636299Y0072900D03*
X0630000Y0072112D03*
X0616614Y0068022D03*
X0612448Y0071096D03*
X0600866Y0078411D03*
X0574882Y0071325D03*
X0567402Y0078018D03*
X0600866Y0060301D03*
X0605984Y0059907D03*
X0611890Y0059907D03*
X0616614Y0059907D03*
X0630000Y0057152D03*
X0636299Y0058915D03*
X0651654Y0046915D03*
X0585118Y0042585D03*
X0573307Y0031167D03*
X0546142Y0034711D03*
X0514252Y0034711D03*
X0509134Y0040616D03*
X0430787Y0051246D03*
X0419370Y0032742D03*
X0371339Y0015419D03*
X0483150Y0098096D03*
X0497323Y0111089D03*
X0487874Y0142978D03*
X0496535Y0148490D03*
X0463465Y0170144D03*
X0470157Y0175262D03*
X0425669Y0182348D03*
X0426063Y0157545D03*
X0426063Y0152427D03*
X0426063Y0147492D03*
X0431181Y0135498D03*
X0409134Y0132348D03*
X0409134Y0139829D03*
X0380787Y0135498D03*
X0409134Y0116207D03*
X0441586Y0109345D03*
X0533543Y0179199D03*
X0537874Y0185498D03*
X0560709Y0179593D03*
X0561890Y0186285D03*
X0593780Y0189829D03*
X0598504Y0189829D03*
X0604409Y0187860D03*
X0604409Y0181167D03*
X0598504Y0180774D03*
X0593780Y0180380D03*
X0611890Y0170537D03*
X0566614Y0107939D03*
X0569370Y0098096D03*
X0609528Y0099671D03*
X0494173Y0208333D03*
X0487480Y0208495D03*
X0492598Y0225420D03*
X0497323Y0225420D03*
X0506378Y0229199D03*
X0448898Y0223293D03*
X0439843Y0223293D03*
X0430000Y0216207D03*
X0421732Y0219697D03*
X0398213Y0218860D03*
X0383543Y0221719D03*
X0385906Y0231955D03*
X0421732Y0237860D03*
X0421339Y0244159D03*
X0439843Y0241404D03*
X0448898Y0241010D03*
X0354803Y0295734D03*
X0350472Y0296128D03*
X0354409Y0309514D03*
X0354409Y0313844D03*
X0354409Y0318569D03*
X0367795Y0330380D03*
X0371732Y0330380D03*
X0371732Y0340222D03*
X0367795Y0340222D03*
X0387480Y0356364D03*
X0398898Y0337467D03*
X0476850Y0317781D03*
X0513858Y0313844D03*
X0597323Y0332348D03*
X0605197Y0333923D03*
X0602835Y0346915D03*
X0625669Y0353608D03*
X0627638Y0349278D03*
X0624094Y0298096D03*
X0615039Y0296128D03*
X0650472Y0286679D03*
X0648898Y0264632D03*
X0670157Y0264632D03*
X0326063Y0185104D03*
X0326063Y0177624D03*
X0326063Y0169356D03*
X0326063Y0161089D03*
X0325669Y0153608D03*
X0325669Y0144947D03*
X0325669Y0137073D03*
X0325669Y0129593D03*
X0290236Y0113451D03*
X0265433Y0113057D03*
X0260315Y0113057D03*
X0255197Y0113057D03*
X0231969Y0124081D03*
X0231969Y0143766D03*
X0189843Y0164238D03*
X0230787Y0189041D03*
X0231575Y0224081D03*
X0246142Y0224868D03*
X0253228Y0224081D03*
X0261496Y0224081D03*
X0270157Y0224474D03*
X0278031Y0224081D03*
X0285906Y0224081D03*
X0292992Y0223687D03*
X0301654Y0223687D03*
X0232756Y0264238D03*
X0224882Y0293372D03*
X0219370Y0293372D03*
X0213858Y0293372D03*
X0207165Y0293372D03*
X0201654Y0293372D03*
X0196142Y0293372D03*
X0221732Y0308726D03*
X0171339Y0318963D03*
X0171339Y0324474D03*
X0171339Y0329986D03*
X0146929Y0320144D03*
X0146929Y0316207D03*
X0146929Y0311482D03*
X0163071Y0269750D03*
X0187874Y0254002D03*
X0189843Y0243766D03*
X0144173Y0236679D03*
X0163071Y0213057D03*
X0316220Y0315813D03*
X0081969Y0365026D03*
X0189055Y0094159D03*
D42*
X0380787Y0135498D02*
X0381003Y0135714D01*
X0381003Y0147447D01*
X0471561Y0232372D02*
X0486939Y0216994D01*
X0504236Y0216994D01*
X0506271Y0219030D01*
X0521012Y0219030D01*
X0471561Y0232372D02*
X0394197Y0232372D01*
X0383543Y0221719D01*
D43*
X0382756Y0231955D02*
X0359921Y0254789D01*
X0359921Y0270640D01*
X0350457Y0280104D01*
X0382756Y0231955D02*
X0385906Y0231955D01*
X0398213Y0218860D02*
X0431181Y0185892D01*
X0431181Y0135498D01*
X0409134Y0132348D02*
X0409055Y0132427D01*
X0402795Y0132427D01*
X0396102Y0132427D02*
X0396024Y0132348D01*
X0396220Y0139199D02*
X0396535Y0139514D01*
X0373479Y0152825D02*
X0368976Y0148322D01*
X0368976Y0137073D01*
X0361555Y0129652D01*
X0361555Y0129593D01*
X0361555Y0137523D02*
X0361555Y0137919D01*
X0366220Y0142585D01*
X0366220Y0147816D01*
X0371370Y0152965D01*
X0371370Y0160333D01*
X0371889Y0160851D01*
X0371889Y0164788D01*
X0374276Y0167175D01*
X0380731Y0167175D01*
X0381003Y0167447D01*
X0376917Y0170102D02*
X0409176Y0170102D01*
X0411890Y0167388D01*
X0418544Y0167388D01*
X0418603Y0167447D01*
X0418603Y0172447D02*
X0418544Y0172506D01*
X0413071Y0172506D01*
X0410709Y0174868D01*
X0372913Y0174868D01*
X0368583Y0170537D01*
X0368583Y0168569D01*
X0361555Y0161541D01*
X0361555Y0161314D01*
X0368189Y0165813D02*
X0368189Y0155577D01*
X0365996Y0153383D01*
X0361555Y0153383D01*
X0367008Y0152146D02*
X0369780Y0154918D01*
X0369780Y0160992D01*
X0370298Y0161510D01*
X0370298Y0165673D01*
X0373391Y0168766D01*
X0374685Y0168766D01*
X0376063Y0170144D01*
X0376875Y0170144D01*
X0376917Y0170102D01*
X0374823Y0172447D02*
X0368189Y0165813D01*
X0364533Y0169244D02*
X0361555Y0169244D01*
X0364533Y0169244D02*
X0372913Y0177624D01*
X0380826Y0177624D01*
X0381003Y0177447D01*
X0381003Y0172447D02*
X0374823Y0172447D01*
X0367739Y0177174D02*
X0370551Y0179986D01*
X0394173Y0179986D01*
X0396713Y0177447D01*
X0418603Y0177447D01*
X0407559Y0165026D02*
X0410315Y0162270D01*
X0418426Y0162270D01*
X0418603Y0162447D01*
X0407559Y0165026D02*
X0375276Y0165026D01*
X0373479Y0163229D01*
X0373479Y0152825D01*
X0367008Y0152146D02*
X0367008Y0150852D01*
X0361609Y0145453D01*
X0361555Y0145453D01*
X0332926Y0145453D02*
X0332420Y0144947D01*
X0325669Y0144947D01*
X0325669Y0137073D02*
X0332476Y0137073D01*
X0332926Y0137523D01*
X0332926Y0129593D02*
X0325669Y0129593D01*
X0325669Y0153608D02*
X0332701Y0153608D01*
X0332926Y0153383D01*
X0332701Y0161089D02*
X0326063Y0161089D01*
X0332701Y0161089D02*
X0332926Y0161314D01*
X0332926Y0169244D02*
X0332813Y0169356D01*
X0326063Y0169356D01*
X0326063Y0177624D02*
X0332476Y0177624D01*
X0332926Y0177174D01*
X0341326Y0177174D02*
X0354862Y0177174D01*
X0361555Y0177174D02*
X0367739Y0177174D01*
X0332926Y0185104D02*
X0332926Y0185104D01*
X0326063Y0185104D01*
X0301260Y0190557D02*
X0290236Y0179533D01*
X0290236Y0157861D01*
X0290374Y0157723D01*
X0285374Y0157723D02*
X0285118Y0157979D01*
X0285118Y0164238D01*
X0285118Y0190501D01*
X0285174Y0190557D01*
X0287874Y0185214D02*
X0287874Y0164238D01*
X0287874Y0164632D01*
X0287874Y0164238D02*
X0287874Y0122623D01*
X0285374Y0120123D01*
X0282756Y0122505D02*
X0280374Y0120123D01*
X0282756Y0122505D02*
X0282756Y0184933D01*
X0277132Y0190557D01*
X0269089Y0190557D02*
X0280394Y0179252D01*
X0280394Y0157743D01*
X0280374Y0157723D01*
X0277719Y0161810D02*
X0277719Y0122469D01*
X0275374Y0120123D01*
X0272913Y0122663D02*
X0272913Y0178018D01*
X0268189Y0182742D01*
X0263465Y0182742D01*
X0262283Y0183923D01*
X0251763Y0183923D01*
X0245129Y0190557D01*
X0253228Y0190557D02*
X0258272Y0185514D01*
X0267667Y0185514D01*
X0275276Y0177905D01*
X0275276Y0157822D01*
X0275374Y0157723D01*
X0277719Y0161810D02*
X0277638Y0161891D01*
X0277638Y0164632D01*
X0277638Y0177792D01*
X0268326Y0187104D01*
X0264499Y0187104D01*
X0261046Y0190557D01*
X0249685Y0177900D02*
X0249685Y0177624D01*
X0249685Y0168963D01*
X0249685Y0168569D01*
X0258228Y0171128D02*
X0258228Y0165813D01*
X0264016Y0171207D02*
X0265374Y0169848D01*
X0265374Y0157723D01*
X0265374Y0151581D01*
X0262283Y0148490D01*
X0231181Y0148490D01*
X0227244Y0152427D01*
X0224094Y0152427D01*
X0222913Y0153608D01*
X0221144Y0153608D01*
X0220711Y0154041D01*
X0228497Y0157837D02*
X0205006Y0157837D01*
X0201211Y0154041D01*
X0228497Y0157837D02*
X0228788Y0157545D01*
X0236299Y0157545D01*
X0243386Y0150459D01*
X0256772Y0150459D01*
X0260374Y0154061D01*
X0260374Y0157723D01*
X0277638Y0164632D02*
X0277638Y0165419D01*
X0285118Y0165026D02*
X0285118Y0164238D01*
X0287874Y0185214D02*
X0293217Y0190557D01*
X0301660Y0210361D02*
X0301690Y0210432D01*
X0301690Y0218832D02*
X0301654Y0219852D01*
X0301654Y0223687D01*
X0292992Y0223687D02*
X0292992Y0218816D01*
X0293586Y0218832D01*
X0285906Y0218744D02*
X0285906Y0224081D01*
X0285481Y0218832D02*
X0285906Y0218744D01*
X0278031Y0218780D02*
X0278031Y0224081D01*
X0277377Y0218832D02*
X0278031Y0218780D01*
X0270157Y0221214D02*
X0270157Y0224474D01*
X0270157Y0221214D02*
X0269273Y0218832D01*
X0261496Y0218707D02*
X0261496Y0224081D01*
X0261169Y0218832D02*
X0261496Y0218707D01*
X0253228Y0218635D02*
X0253228Y0224081D01*
X0253228Y0218832D02*
X0253228Y0218635D01*
X0246142Y0221250D02*
X0246142Y0224868D01*
X0246142Y0221250D02*
X0245191Y0218832D01*
X0220711Y0274041D02*
X0220711Y0284041D01*
X0213280Y0315380D02*
X0200236Y0315380D01*
X0200118Y0315262D01*
X0506457Y0280104D02*
X0506654Y0280104D01*
X0513465Y0273293D01*
X0527244Y0273293D01*
X0530394Y0276443D01*
X0530394Y0276977D01*
X0531452Y0278035D01*
X0531452Y0283800D01*
X0534724Y0287073D01*
X0553442Y0287073D01*
X0557068Y0290699D01*
X0567795Y0290699D01*
X0573394Y0285100D01*
X0588526Y0285100D01*
X0588915Y0284711D01*
X0591024Y0284711D01*
X0594173Y0281561D01*
X0594173Y0274081D01*
X0597010Y0271244D01*
X0623620Y0271244D01*
X0590630Y0254789D02*
X0590310Y0255109D01*
X0584388Y0255109D01*
X0581461Y0258035D01*
X0581461Y0265100D01*
X0576457Y0270104D01*
X0586339Y0250104D02*
X0586457Y0250104D01*
X0586339Y0250104D02*
X0582559Y0246325D01*
X0579742Y0246325D01*
X0578526Y0245109D01*
X0578041Y0245109D01*
X0578031Y0245100D01*
X0525669Y0245100D01*
X0564646Y0234317D02*
X0573605Y0234317D01*
X0574388Y0235100D01*
X0596146Y0235100D01*
X0601260Y0229986D01*
X0593145Y0245100D02*
X0584388Y0245100D01*
X0579392Y0240104D01*
X0576457Y0240104D01*
X0593145Y0245100D02*
X0593780Y0245734D01*
X0590236Y0185104D02*
X0567008Y0185104D01*
X0561496Y0179593D01*
X0560709Y0179593D01*
X0441586Y0109345D02*
X0441452Y0109211D01*
X0441452Y0088035D01*
X0441024Y0087607D01*
X0441024Y0083530D01*
X0431452Y0088035D02*
X0427638Y0084221D01*
X0427638Y0081561D01*
X0426276Y0080199D01*
X0424929Y0080199D01*
X0422354Y0077624D01*
X0416614Y0077624D01*
X0431452Y0088035D02*
X0431452Y0097974D01*
X0434331Y0100852D01*
X0558683Y0094943D02*
X0561452Y0092173D01*
X0561452Y0081211D01*
X0561693Y0080970D01*
X0561890Y0080774D01*
X0272913Y0122663D02*
X0270374Y0120123D01*
D44*
X0264016Y0177900D02*
X0258346Y0177900D01*
X0258307Y0177900D01*
X0258228Y0177821D01*
X0249882Y0177821D01*
X0249685Y0177624D01*
X0418603Y0182447D02*
X0425571Y0182447D01*
X0425669Y0182348D01*
X0426063Y0157545D02*
X0418702Y0157545D01*
X0418603Y0157447D01*
X0418603Y0152447D02*
X0418623Y0152427D01*
X0426063Y0152427D01*
X0426063Y0147492D02*
X0418648Y0147492D01*
X0418603Y0147447D01*
X0650472Y0286679D02*
X0650472Y0300065D01*
X0644488Y0306049D01*
X0644488Y0306561D01*
X0439803Y0308982D02*
X0438996Y0310242D01*
X0390866Y0308982D02*
X0372638Y0327585D01*
X0342717Y0327211D01*
X0342717Y0308982D02*
X0341032Y0307631D01*
X0340827Y0307467D01*
X0290630Y0307467D01*
X0290551Y0307467D01*
X0073831Y0371719D02*
X0073595Y0371955D01*
X0060276Y0371955D01*
D45*
X0144173Y0324868D02*
X0154409Y0335104D01*
X0180787Y0335104D01*
X0191417Y0324474D01*
X0223701Y0324474D01*
X0229606Y0318569D01*
X0229606Y0290616D01*
X0181575Y0290616D01*
X0181575Y0309514D01*
X0146535Y0309514D01*
X0144173Y0311876D01*
X0144173Y0324868D01*
X0144204Y0324899D02*
X0190992Y0324899D01*
X0189025Y0326866D02*
X0146172Y0326866D01*
X0148139Y0328833D02*
X0187058Y0328833D01*
X0185091Y0330800D02*
X0150106Y0330800D01*
X0152073Y0332767D02*
X0183124Y0332767D01*
X0181157Y0334734D02*
X0154040Y0334734D01*
X0144173Y0322932D02*
X0225243Y0322932D01*
X0227210Y0320965D02*
X0144173Y0320965D01*
X0144173Y0318998D02*
X0190222Y0318998D01*
X0190238Y0319015D02*
X0189869Y0318646D01*
X0189608Y0318193D01*
X0189472Y0317688D01*
X0189472Y0315262D01*
X0193425Y0315262D01*
X0193425Y0319411D01*
X0191195Y0319411D01*
X0190691Y0319276D01*
X0190238Y0319015D01*
X0189472Y0317031D02*
X0144173Y0317031D01*
X0144173Y0315064D02*
X0189472Y0315064D01*
X0189472Y0315262D02*
X0189472Y0312835D01*
X0189608Y0312331D01*
X0189869Y0311878D01*
X0190238Y0311509D01*
X0190691Y0311247D01*
X0191195Y0311112D01*
X0193425Y0311112D01*
X0193425Y0315262D01*
X0193425Y0315262D01*
X0193425Y0315262D01*
X0193425Y0319411D01*
X0195655Y0319411D01*
X0196160Y0319276D01*
X0196612Y0319015D01*
X0196772Y0318855D01*
X0197328Y0319411D01*
X0202909Y0319411D01*
X0204071Y0318249D01*
X0204071Y0317659D01*
X0209796Y0317659D01*
X0209796Y0319052D01*
X0210958Y0320214D01*
X0215602Y0320214D01*
X0216765Y0319052D01*
X0216765Y0311708D01*
X0215602Y0310546D01*
X0210958Y0310546D01*
X0209796Y0311708D01*
X0209796Y0313100D01*
X0204071Y0313100D01*
X0204071Y0312275D01*
X0202909Y0311112D01*
X0197328Y0311112D01*
X0196772Y0311668D01*
X0196612Y0311509D01*
X0196160Y0311247D01*
X0195655Y0311112D01*
X0193425Y0311112D01*
X0193425Y0315262D01*
X0189472Y0315262D01*
X0189472Y0313097D02*
X0144173Y0313097D01*
X0144919Y0311130D02*
X0191128Y0311130D01*
X0193425Y0311130D02*
X0193425Y0311130D01*
X0193425Y0313097D02*
X0193425Y0313097D01*
X0193425Y0315064D02*
X0193425Y0315064D01*
X0193425Y0315262D02*
X0193425Y0315262D01*
X0193425Y0317031D02*
X0193425Y0317031D01*
X0193425Y0318998D02*
X0193425Y0318998D01*
X0196629Y0318998D02*
X0196915Y0318998D01*
X0203322Y0318998D02*
X0209796Y0318998D01*
X0209796Y0313097D02*
X0204071Y0313097D01*
X0202927Y0311130D02*
X0210374Y0311130D01*
X0216187Y0311130D02*
X0218774Y0311130D01*
X0218999Y0310905D02*
X0218788Y0310694D01*
X0218259Y0309417D01*
X0218259Y0308035D01*
X0218788Y0306759D01*
X0219765Y0305782D01*
X0221041Y0305253D01*
X0222423Y0305253D01*
X0223700Y0305782D01*
X0224677Y0306759D01*
X0225205Y0308035D01*
X0225205Y0309417D01*
X0224677Y0310694D01*
X0224414Y0310957D01*
X0225165Y0311708D01*
X0225165Y0319052D01*
X0224002Y0320214D01*
X0219358Y0320214D01*
X0218196Y0319052D01*
X0218196Y0311708D01*
X0218999Y0310905D01*
X0218259Y0309163D02*
X0181575Y0309163D01*
X0181575Y0307196D02*
X0218607Y0307196D01*
X0224858Y0307196D02*
X0229606Y0307196D01*
X0229606Y0305229D02*
X0181575Y0305229D01*
X0181575Y0303262D02*
X0229606Y0303262D01*
X0229606Y0301295D02*
X0181575Y0301295D01*
X0181575Y0299328D02*
X0229606Y0299328D01*
X0229606Y0297361D02*
X0181575Y0297361D01*
X0181575Y0295394D02*
X0229606Y0295394D01*
X0229606Y0293427D02*
X0181575Y0293427D01*
X0181575Y0291460D02*
X0229606Y0291460D01*
X0229606Y0309163D02*
X0225205Y0309163D01*
X0224587Y0311130D02*
X0229606Y0311130D01*
X0229606Y0313097D02*
X0225165Y0313097D01*
X0225165Y0315064D02*
X0229606Y0315064D01*
X0229606Y0317031D02*
X0225165Y0317031D01*
X0225165Y0318998D02*
X0229177Y0318998D01*
X0218196Y0318998D02*
X0216765Y0318998D01*
X0216765Y0317031D02*
X0218196Y0317031D01*
X0218196Y0315064D02*
X0216765Y0315064D01*
X0216765Y0313097D02*
X0218196Y0313097D01*
X0197310Y0311130D02*
X0195722Y0311130D01*
X0618189Y0306849D02*
X0618189Y0304002D01*
X0624094Y0298096D01*
X0639252Y0264632D02*
X0648898Y0264632D01*
X0649685Y0194159D02*
X0639252Y0194159D01*
X0639252Y0110459D02*
X0670315Y0110459D01*
X0670551Y0110695D01*
X0668563Y0071738D02*
X0659567Y0071738D01*
X0668563Y0071738D02*
X0668583Y0071719D01*
D46*
X0341032Y0307631D02*
X0290716Y0307631D01*
X0290551Y0307467D01*
X0290630Y0307467D02*
X0273150Y0307467D01*
X0273110Y0307427D01*
X0251063Y0307427D02*
X0242598Y0315892D01*
X0242598Y0323687D01*
X0207165Y0359120D01*
X0183150Y0359120D01*
X0160709Y0381561D01*
X0160709Y0385104D01*
M02*
